<svg width="210" height="31" viewBox="0 0 210 31" fill="none" xmlns="http://www.w3.org/2000/svg">
<path d="M0.764958 21.4427C1.24332 21.0997 1.72754 20.8866 2.21656 20.803C2.7157 20.7097 3.24093 20.6368 3.79281 20.5846L7.69431 4.79111C7.65276 4.79111 7.53289 4.79111 7.33526 4.79111C7.14775 4.78045 6.93468 4.765 6.6955 4.74423C6.46644 4.7128 6.23736 4.66591 6.00883 4.60359C5.77977 4.54126 5.60825 4.45285 5.49372 4.33832C5.44152 4.26534 5.37386 4.17212 5.29076 4.05759C5.21778 3.9324 5.14533 3.80241 5.07235 3.6671C4.99937 3.52167 4.93705 3.37573 4.88485 3.2303C4.83318 3.08488 4.80708 2.93891 4.80708 2.79349C4.80708 2.55377 4.90562 2.35614 5.10326 2.20006C5.31154 2.03385 5.56136 1.90388 5.85275 1.81012C6.15426 1.70624 6.47709 1.63326 6.82014 1.59171C7.16373 1.55016 7.4759 1.52939 7.75663 1.52939C9.0676 1.52939 10.2795 1.57093 11.3928 1.65404C12.5163 1.72702 13.562 1.89322 14.5299 2.15371C15.5079 2.41366 16.4231 2.78282 17.2765 3.26172C18.14 3.74008 18.962 4.37986 19.7424 5.18104C20.0337 5.48308 20.3091 5.82081 20.5696 6.1953C20.8397 6.57032 21.0741 6.98102 21.2717 7.42849C21.48 7.8653 21.6462 8.33888 21.7714 8.84867C21.896 9.34781 21.9584 9.87837 21.9584 10.4404C21.9584 10.7424 21.9429 11.0594 21.9115 11.3923C21.8806 11.7253 21.8385 12.0113 21.7869 12.251C21.4848 13.4576 21.0586 14.5294 20.5068 15.4659C19.9661 16.3917 19.3311 17.219 18.6029 17.9472C17.8854 18.6652 17.0943 19.289 16.2308 19.8201C15.3673 20.3507 14.4724 20.8136 13.5465 21.2089C12.6207 21.6042 11.6789 21.9477 10.7216 22.2391C9.76437 22.53 8.83321 22.7905 7.92816 23.019H7.9436C7.53822 23.1442 7.10086 23.2534 6.63315 23.3471C6.16491 23.4404 5.69135 23.5187 5.21299 23.581C4.73409 23.6433 4.25573 23.6955 3.77683 23.7371C3.30859 23.7685 2.86645 23.7839 2.45041 23.7839C1.99282 23.7839 1.60768 23.7579 1.29552 23.7062C0.983354 23.6433 0.728721 23.5655 0.530557 23.4718C0.34358 23.3679 0.208277 23.2534 0.125176 23.1287C0.0420754 23.0035 0 22.8682 0 22.7228C0 22.5145 0.0575264 22.3014 0.172057 22.083C0.296708 21.854 0.494347 21.6409 0.764958 21.4427ZM7.63196 16.9638C7.50678 17.4944 7.3768 18.0409 7.2415 18.6024C7.10619 19.1644 6.97621 19.7157 6.85156 20.2569L7.21061 20.1786C7.43914 20.127 7.74596 20.0487 8.1311 19.9448C8.52637 19.8409 8.97917 19.7109 9.48896 19.5549C9.99876 19.3988 10.5347 19.2113 11.0961 18.9929C11.6581 18.7745 12.251 18.514 12.8753 18.2125C13.5103 17.9003 14.1346 17.5519 14.7483 17.1668C15.362 16.7715 15.9501 16.3448 16.5115 15.8872C17.0735 15.4291 17.5679 14.9401 17.9946 14.4202C18.4207 13.8896 18.759 13.3382 19.0088 12.7656C19.2688 12.1834 19.3988 11.5798 19.3988 10.9555C19.3988 10.3211 19.2741 9.72284 19.0243 9.16084C18.775 8.58872 18.4367 8.06294 18.01 7.58457C17.594 7.09556 17.105 6.66355 16.543 6.28906C15.9916 5.90445 15.4142 5.5763 14.8106 5.30569C14.2071 5.03561 13.5934 4.83265 12.9691 4.69735C12.3554 4.55139 11.7726 4.47894 11.2213 4.47894C10.4409 6.49733 9.77502 8.54663 9.22367 10.6279C8.67233 12.7086 8.14176 14.8208 7.63196 16.9638ZM23.7062 20.9282C23.8622 20.3246 24.0497 19.6225 24.2682 18.8213C24.4866 18.0202 24.7156 17.1721 24.9548 16.2772C25.2047 15.3828 25.4545 14.467 25.7038 13.5306C25.9536 12.5941 26.188 11.6837 26.4064 10.7994C26.4165 10.7579 26.4533 10.6902 26.5156 10.5964C26.5779 10.4926 26.6664 10.3935 26.7809 10.3003C26.8954 10.1959 27.0408 10.1074 27.2177 10.0345C27.3946 9.96201 27.6029 9.92525 27.842 9.92525C28.0189 9.92525 28.1904 9.94602 28.3572 9.9881C28.5234 10.019 28.6693 10.0712 28.794 10.1442C28.9293 10.2166 29.0331 10.3157 29.1061 10.4404C29.1892 10.5549 29.2308 10.6902 29.2308 10.8463C29.2308 10.8772 29.2308 10.9139 29.2308 10.9555C29.2308 10.9869 29.226 11.0178 29.2153 11.0493L28.7785 12.7033C28.2895 14.5555 27.7898 16.4125 27.28 18.2748C26.7809 20.1371 26.2919 22.0047 25.813 23.8777C25.7922 23.94 25.7613 24.0178 25.7198 24.1116C25.6782 24.2053 25.6207 24.2991 25.5477 24.3928C25.4753 24.486 25.3868 24.5643 25.2824 24.6267C25.1785 24.689 25.0539 24.7204 24.9079 24.7204C24.6373 24.7204 24.3981 24.6629 24.1904 24.5489C23.9821 24.4445 23.8052 24.3092 23.6593 24.143C23.5139 23.9763 23.4046 23.7946 23.3317 23.5964C23.2587 23.3988 23.2225 23.2118 23.2225 23.035C23.2225 22.9828 23.2225 22.9359 23.2225 22.8943C23.2225 22.8528 23.2331 22.8059 23.2539 22.7537L23.7062 20.9282ZM27.7797 4.77511C27.8314 4.55671 27.9251 4.29143 28.0604 3.97927C28.1957 3.66711 28.4349 3.38638 28.7785 3.13654C28.9447 3.04279 29.1477 2.95968 29.3869 2.8867C29.6266 2.8036 29.7981 2.76205 29.902 2.76205C30.0064 2.76205 30.1103 2.79827 30.2141 2.87125C30.3287 2.94423 30.4278 3.022 30.5109 3.10564C30.6147 3.20951 30.7138 3.32404 30.807 3.44869C31.0675 3.46947 31.2337 3.56324 31.3067 3.72997C31.3898 3.89617 31.4314 4.09379 31.4314 4.32285C31.4314 4.48906 31.4159 4.63981 31.3845 4.77511C31.3536 4.91042 31.3275 5.01962 31.3067 5.10326C31.2444 5.32166 31.1245 5.52462 30.9477 5.7116C30.7708 5.88846 30.5679 6.04455 30.3393 6.17985C30.1103 6.30504 29.8711 6.40358 29.6213 6.47656C29.3714 6.54901 29.153 6.58576 28.9655 6.58576C28.7263 6.58576 28.5393 6.54422 28.404 6.46059C28.2789 6.37749 28.118 6.20062 27.9198 5.93001C27.8058 5.77393 27.7381 5.65461 27.7174 5.57151C27.7067 5.47775 27.7014 5.39945 27.7014 5.33713C27.7014 5.2226 27.7067 5.12404 27.7174 5.0404C27.7381 4.94718 27.7589 4.85875 27.7797 4.77511ZM32.6955 30.994C32.6124 30.994 32.5186 30.9733 32.4147 30.9317C32.3108 30.9003 32.2118 30.8433 32.118 30.7602C32.0349 30.6872 31.9619 30.5881 31.8996 30.4634C31.8373 30.3489 31.8058 30.2088 31.8058 30.0421C31.8058 29.9276 31.8218 29.8082 31.8527 29.683C31.9364 29.34 32.0248 29.0587 32.118 28.8403C32.2118 28.6326 32.3471 28.4557 32.5239 28.3098C32.7008 28.1643 32.94 28.0391 33.242 27.9353C33.5435 27.8415 33.9388 27.743 34.4278 27.6385C34.7399 27.5762 35.0313 27.5032 35.3019 27.4201C35.5827 27.3472 35.8117 27.254 35.9886 27.1394C36.5192 26.6712 36.9666 26.1875 37.331 25.6878C37.7055 25.1887 38.0176 24.6682 38.2669 24.1275C38.5274 23.5964 38.7405 23.0504 38.9073 22.4884C39.0841 21.927 39.2503 21.3543 39.4064 20.7721C39.4687 20.5744 39.5209 20.3715 39.5625 20.1632C39.6147 19.9448 39.677 19.7003 39.75 19.4297C39.3542 19.7732 38.9435 20.1163 38.5168 20.4599C38.0901 20.803 37.6533 21.1098 37.2058 21.3804C36.7583 21.651 36.3008 21.8748 35.8325 22.0516C35.3749 22.2183 34.9168 22.3014 34.4592 22.3014C34.1886 22.3014 33.8818 22.2183 33.5382 22.0516C33.2052 21.8854 32.8883 21.6665 32.5863 21.3964C32.2847 21.1258 32.0296 20.8136 31.8218 20.4599C31.6135 20.0955 31.5097 19.7157 31.5097 19.3205C31.5097 19.0706 31.5406 18.8005 31.6034 18.5092C31.6657 18.2178 31.7228 17.9573 31.775 17.7288C31.9412 17.0421 32.1857 16.3762 32.5085 15.7311C32.8308 15.086 33.2052 14.4724 33.6319 13.8896C34.0586 13.3068 34.5269 12.7555 35.0367 12.235C35.5465 11.7045 36.077 11.2154 36.6284 10.768C37.315 10.2065 38.0017 9.80059 38.6883 9.55076C39.375 9.30092 40.1037 9.17628 40.8734 9.17628C41.1957 9.17628 41.5031 9.19174 41.794 9.22317C42.096 9.25459 42.3767 9.32223 42.6367 9.42611C42.9073 9.51986 43.1571 9.6653 43.3862 9.86293C43.6147 10.0504 43.823 10.3003 44.0105 10.6119C44.0521 10.6849 44.083 10.7733 44.1037 10.8772C44.1352 10.9709 44.1506 11.0546 44.1506 11.127C44.1506 11.2101 44.1245 11.4184 44.0728 11.7513C44.0313 12.0742 43.9684 12.4795 43.8853 12.9686C43.8124 13.4475 43.7191 13.9881 43.6046 14.5917C43.5007 15.1846 43.391 15.7881 43.277 16.4023C43.1625 17.0054 43.0479 17.6036 42.9334 18.197C42.8189 18.7792 42.7097 19.305 42.6058 19.7733C42.4289 20.5952 42.2052 21.4427 41.9346 22.3169C41.6746 23.1911 41.3518 24.0439 40.9672 24.8765C40.5927 25.7086 40.15 26.4943 39.6402 27.2332C39.1305 27.9715 38.5376 28.6166 37.8616 29.1679C37.185 29.7299 36.4206 30.1721 35.5672 30.4949C34.7139 30.8278 33.7571 30.994 32.6955 30.994ZM34.2408 18.0718C34.2094 18.197 34.1785 18.327 34.1471 18.4623C34.1263 18.5869 34.1156 18.7121 34.1156 18.8368C34.1156 19.0658 34.1572 19.2635 34.2408 19.4297C34.3239 19.5964 34.4747 19.6795 34.6931 19.6795C35.0367 19.6795 35.4373 19.5597 35.8948 19.3205C36.3631 19.0706 36.826 18.7585 37.2841 18.384C37.7524 18.0095 38.1892 17.6036 38.5951 17.1668C39.0111 16.73 39.3387 16.3139 39.5779 15.9181C39.6823 15.7519 39.8171 15.5229 39.9838 15.2315C40.1607 14.9401 40.3322 14.6279 40.499 14.2955C40.6758 13.9519 40.8319 13.6137 40.9672 13.2807C41.1025 12.9377 41.1856 12.6356 41.2165 12.3757C41.2165 12.1988 41.1803 12.0374 41.1073 11.892C41.0349 11.7359 40.972 11.5223 40.9203 11.2522H40.7797C40.5299 11.2522 40.2438 11.3353 39.9215 11.5015C39.5987 11.6576 39.2556 11.8659 38.8913 12.1258C38.5376 12.3863 38.1785 12.6825 37.8147 13.0154C37.4503 13.3383 37.1073 13.6712 36.7845 14.0143C36.4622 14.3472 36.1655 14.6748 35.8948 14.9976C35.6349 15.3098 35.4319 15.5852 35.2865 15.8249C35.0676 16.168 34.8651 16.5163 34.6776 16.87C34.5008 17.2136 34.3553 17.6142 34.2408 18.0718ZM46.9286 20.9282C47.0847 20.3246 47.2722 19.6225 47.4906 18.8213C47.709 18.0202 47.9381 17.1721 48.1773 16.2772C48.4271 15.3828 48.6764 14.467 48.9263 13.5306C49.1761 12.5941 49.4099 11.6837 49.6283 10.7994C49.639 10.7579 49.6752 10.6902 49.7381 10.5964C49.8004 10.4926 49.8888 10.3935 50.0034 10.3003C50.1174 10.1959 50.2633 10.1074 50.4402 10.0345C50.617 9.96201 50.8253 9.92525 51.0645 9.92525C51.2414 9.92525 51.4129 9.94602 51.5796 9.9881C51.7458 10.019 51.8913 10.0712 52.0164 10.1442C52.1517 10.2166 52.2556 10.3157 52.3286 10.4404C52.4117 10.5549 52.4533 10.6902 52.4533 10.8463C52.4533 10.8772 52.4533 10.9139 52.4533 10.9555C52.4533 10.9869 52.4479 11.0178 52.4378 11.0493L52.001 12.7033C51.512 14.5555 51.0123 16.4125 50.5025 18.2748C50.0034 20.1371 49.5143 22.0047 49.0354 23.8777C49.0147 23.94 48.9838 24.0178 48.9417 24.1116C48.9002 24.2053 48.8432 24.2991 48.7702 24.3928C48.6972 24.486 48.6088 24.5643 48.5049 24.6267C48.401 24.689 48.2758 24.7204 48.1304 24.7204C47.8598 24.7204 47.6206 24.6629 47.4123 24.5489C47.2046 24.4445 47.0277 24.3092 46.8818 24.143C46.7363 23.9763 46.6271 23.7946 46.5541 23.5964C46.4812 23.3988 46.4449 23.2118 46.4449 23.035C46.4449 22.9828 46.4449 22.9359 46.4449 22.8943C46.4449 22.8528 46.4551 22.8059 46.4758 22.7537L46.9286 20.9282ZM51.0022 4.77511C51.0539 4.55671 51.1476 4.29143 51.2829 3.97927C51.4182 3.66711 51.6574 3.38638 52.001 3.13654C52.1672 3.04279 52.3702 2.95968 52.6093 2.8867C52.8485 2.8036 53.0206 2.76205 53.1245 2.76205C53.2283 2.76205 53.3327 2.79827 53.4366 2.87125C53.5512 2.94423 53.6497 3.022 53.7333 3.10564C53.8372 3.20951 53.9357 3.32404 54.0295 3.44869C54.2895 3.46947 54.4562 3.56324 54.5292 3.72997C54.6123 3.89617 54.6538 4.09379 54.6538 4.32285C54.6538 4.48906 54.6384 4.63981 54.607 4.77511C54.5761 4.91042 54.55 5.01962 54.5292 5.10326C54.4663 5.32166 54.347 5.52462 54.1701 5.7116C53.9933 5.88846 53.7903 6.04455 53.5613 6.17985C53.3327 6.30504 53.093 6.40358 52.8437 6.47656C52.5939 6.54901 52.3755 6.58576 52.188 6.58576C51.9488 6.58576 51.7613 6.54422 51.626 6.46059C51.5013 6.37749 51.3399 6.20062 51.1423 5.93001C51.0277 5.77393 50.9601 5.65461 50.9393 5.57151C50.9292 5.47775 50.9239 5.39945 50.9239 5.33713C50.9239 5.2226 50.9292 5.12404 50.9393 5.0404C50.9601 4.94718 50.9814 4.85875 51.0022 4.77511ZM57.2758 18.9305C57.2758 18.0564 57.3743 17.1513 57.5725 16.2148C57.7701 15.2682 57.9779 14.3626 58.1963 13.4991C57.9262 13.489 57.6503 13.4475 57.3695 13.3745C57.0883 13.3015 56.8336 13.203 56.6046 13.0778C56.3755 12.9531 56.1885 12.8024 56.0426 12.6255C55.8972 12.438 55.8242 12.2249 55.8242 11.9857C55.8242 11.892 55.845 11.7721 55.8865 11.6267C55.9286 11.4807 55.9856 11.3406 56.0586 11.2053C56.1417 11.0594 56.2455 10.94 56.3707 10.8463C56.4954 10.7424 56.636 10.6902 56.7921 10.6902H58.8835C59.0811 10.6902 59.2159 10.6071 59.2888 10.4404C59.3618 10.2635 59.4188 10.092 59.4604 9.92525C59.5957 9.32224 59.7209 8.80179 59.8354 8.36497C59.96 7.91751 60.0639 7.54303 60.1476 7.24099C60.2307 6.92883 60.293 6.67951 60.3345 6.492C60.3867 6.29437 60.4128 6.1383 60.4128 6.02377C60.4128 5.88846 60.4075 5.75848 60.3969 5.63383C60.3867 5.50865 60.3814 5.33713 60.3814 5.11872V4.96264C60.3814 4.87953 60.3867 4.77033 60.3969 4.63502C60.4176 4.49972 60.4698 4.30742 60.5529 4.05759C60.6153 3.85995 60.7298 3.67243 60.8965 3.49557C61.0627 3.31872 61.3073 3.2303 61.6301 3.2303C61.9108 3.2303 62.15 3.2873 62.3476 3.40183C62.5452 3.51636 62.7066 3.66711 62.8318 3.85462C62.9565 4.0416 63.0502 4.2552 63.1126 4.49438C63.1749 4.73356 63.2063 4.97328 63.2063 5.21246C63.2063 5.47242 63.1802 5.70628 63.128 5.91457L61.9891 10.2843C62.5506 10.1905 63.0502 10.1021 63.487 10.019C63.9239 9.93591 64.3612 9.8528 64.798 9.76917C65.2764 9.67594 65.6876 9.58753 66.0307 9.5039C66.3849 9.4208 66.6864 9.35314 66.9363 9.30093C67.1856 9.23861 67.3939 9.19174 67.5606 9.16084C67.7374 9.11929 67.8829 9.0985 67.9974 9.0985C68.1636 9.0985 68.3303 9.11395 68.4965 9.14538C68.6734 9.16615 68.8247 9.2077 68.9493 9.27003C69.0846 9.33235 69.1938 9.42078 69.2769 9.53531C69.36 9.64984 69.4021 9.80059 69.4021 9.9881C69.4021 10.2374 69.3499 10.4611 69.2461 10.6588C69.1523 10.8463 69.0271 11.0125 68.8716 11.1585C68.7155 11.2938 68.5381 11.4083 68.3405 11.5015C68.1428 11.5852 67.9452 11.6475 67.7476 11.689C67.5814 11.7204 67.3624 11.7668 67.0924 11.8297C66.8319 11.892 66.5405 11.9596 66.2182 12.0321C65.906 12.1051 65.5784 12.1834 65.2348 12.2665C64.8918 12.3496 64.5588 12.4327 64.236 12.5163C63.7576 12.641 63.3464 12.7448 63.0033 12.8285C62.6704 12.9116 62.3844 12.9739 62.1452 13.0154C61.9055 13.057 61.7078 13.0884 61.5518 13.1092C61.4063 13.13 61.2865 13.1406 61.1927 13.1406C60.9951 13.7335 60.8235 14.3163 60.6781 14.8884C60.5322 15.4605 60.4075 15.9964 60.3036 16.4956C60.2099 16.9846 60.1369 17.4267 60.0847 17.8225C60.0432 18.2071 60.0224 18.5092 60.0224 18.7276C60.0224 19.0083 60.0485 19.2789 60.1007 19.5389C60.1524 19.7887 60.2408 20.0071 60.366 20.1946C60.4906 20.3816 60.6574 20.5323 60.8651 20.6469C61.0835 20.7513 61.3541 20.803 61.6769 20.803C62.2283 20.803 62.769 20.6522 63.3001 20.3507C63.8306 20.0487 64.3351 19.6689 64.8135 19.2113C65.3025 18.743 65.7606 18.2332 66.1868 17.6819C66.6241 17.1305 67.0247 16.6048 67.3885 16.1056C67.5137 15.9181 67.6746 15.8249 67.8722 15.8249C67.9351 15.8249 68.0075 15.835 68.0912 15.8558C68.1844 15.8766 68.2728 15.9133 68.3565 15.965C68.4396 16.0172 68.5072 16.0849 68.5594 16.168C68.6217 16.2511 68.6526 16.3501 68.6526 16.4647C68.6526 16.5478 68.6478 16.6101 68.6372 16.6516C68.471 17.2967 68.2105 17.9472 67.8568 18.6024C67.5137 19.2475 67.16 19.8979 66.7956 20.5537C66.671 20.7822 66.5043 21.0059 66.2965 21.2243C66.0983 21.4427 65.8799 21.6563 65.6408 21.8641C65.4016 22.0623 65.1517 22.2546 64.8918 22.4416C64.6318 22.6184 64.3873 22.7798 64.1582 22.9258C63.763 23.1751 63.331 23.3471 62.8627 23.4404C62.3945 23.5341 61.9422 23.581 61.5049 23.581C60.8289 23.581 60.2253 23.4617 59.6948 23.222C59.1743 22.9727 58.7322 22.6397 58.3683 22.2231C58.0146 21.797 57.744 21.3026 57.5565 20.7406C57.3695 20.1786 57.2758 19.5756 57.2758 18.9305ZM79.5149 23.1127C79.5149 22.8112 79.5511 22.4522 79.6241 22.0362C79.6971 21.6095 79.7333 21.0842 79.7333 20.4599C79.3902 20.7097 79.0104 21.0059 78.5938 21.3495C78.1778 21.6926 77.7463 22.0202 77.2989 22.3323C76.8514 22.6445 76.4039 22.9098 75.9565 23.1287C75.5197 23.3365 75.1084 23.4404 74.7238 23.4404C74.4116 23.4404 74.1149 23.394 73.8342 23.3002C73.5534 23.2065 73.3137 23.0819 73.1161 22.9258C72.5648 22.4884 72.1642 22.0516 71.9143 21.6148C71.6752 21.1775 71.5558 20.6677 71.5558 20.0854C71.5558 19.8249 71.5766 19.5549 71.6182 19.2736C71.6698 18.9929 71.7428 18.67 71.8366 18.3062C72.2318 16.6623 72.9084 15.143 73.8651 13.749C74.833 12.3442 76.0294 11.1478 77.4549 10.1597C78.0063 9.77451 78.5576 9.52999 79.109 9.42611C79.6603 9.31158 80.2069 9.25458 80.7476 9.25458C80.9873 9.25458 81.2525 9.27004 81.5439 9.30093C81.8454 9.33236 82.1161 9.3638 82.3552 9.39469C82.5944 9.34302 82.7873 9.30626 82.9327 9.28549C83.0888 9.26471 83.2502 9.25458 83.4164 9.25458C83.7285 9.25458 83.9885 9.29613 84.1968 9.37923C84.4051 9.46233 84.5713 9.57687 84.6964 9.72283C84.8211 9.85761 84.9095 10.019 84.9617 10.2065C85.0241 10.3834 85.055 10.5703 85.055 10.768C85.055 11.0386 85.0134 11.2985 84.9303 11.5484C84.8472 11.7876 84.7636 12.0321 84.6805 12.2819L82.6205 20.5068C82.579 20.9543 82.5428 21.365 82.5113 21.7394C82.4799 22.1139 82.4176 22.4629 82.3238 22.7851C82.2929 22.8789 82.2514 22.9982 82.1992 23.1442C82.1576 23.2795 82.0846 23.4148 81.9808 23.5501C81.8769 23.6747 81.7464 23.784 81.5903 23.8777C81.4342 23.9715 81.2318 24.0178 80.9819 24.0178C80.6591 24.0178 80.3992 23.997 80.2015 23.9555C80.014 23.9139 79.8686 23.8569 79.7647 23.7839C79.6603 23.7008 79.5927 23.6071 79.5618 23.5032C79.5303 23.3887 79.5149 23.2587 79.5149 23.1127ZM74.3333 18.4C74.2918 18.5454 74.2449 18.7537 74.1932 19.0237C74.1517 19.2944 74.1309 19.565 74.1309 19.8356C74.1309 20.1163 74.1725 20.3715 74.2556 20.6C74.3387 20.819 74.5208 20.9282 74.8016 20.9282C75.2389 20.9282 75.6443 20.8344 76.0188 20.6469C76.4039 20.4492 76.763 20.2154 77.0959 19.9448C77.5434 19.5804 77.9956 19.175 78.4538 18.7276C78.922 18.2694 79.3588 17.7911 79.7647 17.2914C80.1808 16.7923 80.5451 16.2825 80.8573 15.762C81.1796 15.2315 81.4134 14.7062 81.5594 14.1858C81.6425 13.8843 81.7101 13.5359 81.7623 13.1406C81.8247 12.7448 81.8556 12.3911 81.8556 12.079C81.8556 11.9437 81.8247 11.8137 81.7623 11.689C81.7 11.5537 81.5802 11.4861 81.4033 11.4861C80.8935 11.4861 80.3784 11.5851 79.8579 11.7828C79.3482 11.9804 78.8543 12.2457 78.3754 12.5786C77.8971 12.9116 77.4389 13.3068 77.0021 13.7644C76.5754 14.2119 76.1855 14.6956 75.8318 15.216C75.4781 15.7258 75.1713 16.2564 74.9108 16.8077C74.6615 17.3489 74.4686 17.8795 74.3333 18.4ZM92.0781 3.54245C92.1095 3.18874 92.151 2.8036 92.2027 2.38756C92.2549 1.97152 92.338 1.58639 92.4525 1.23268C92.5671 0.878971 92.7178 0.587581 92.9053 0.358521C93.103 0.119339 93.3528 0 93.6543 0C93.8205 0 94.0027 0.0309063 94.2003 0.0932321C94.4086 0.156091 94.6009 0.244523 94.7778 0.358521C94.9653 0.46293 95.1214 0.592905 95.246 0.748986C95.3712 0.905067 95.4335 1.07659 95.4335 1.2641C95.4335 1.3472 95.4175 1.44575 95.3866 1.56028C95.3552 1.66468 95.3291 1.76857 95.3084 1.87244L91.4069 17.5104C91.2508 18.1347 91.1208 18.7329 91.0169 19.305C90.9125 19.8665 90.8347 20.3299 90.7825 20.6938V21.0682C90.7825 21.3804 90.7618 21.724 90.7202 22.0985C90.6787 22.4629 90.6009 22.8059 90.4864 23.1287C90.3718 23.4403 90.2104 23.7008 90.0021 23.9086C89.8045 24.1275 89.5445 24.2367 89.2223 24.2367C88.941 24.2367 88.6965 24.1739 88.4887 24.0492C88.2805 23.9347 88.1089 23.784 87.9736 23.5964C87.8383 23.4095 87.7392 23.2118 87.6769 23.0035C87.6146 22.7851 87.5831 22.5822 87.5831 22.3952C87.5831 22.2285 87.5991 22.0255 87.63 21.7863C87.6615 21.5365 87.6977 21.2819 87.7392 21.0214C87.7914 20.7513 87.8436 20.486 87.8953 20.2255C87.9475 19.9549 87.9997 19.721 88.0514 19.5234L92.0781 3.54245ZM125.101 23.9555C124.883 23.9555 124.69 23.9139 124.524 23.8308C124.357 23.7477 124.217 23.6385 124.102 23.5032C123.998 23.3679 123.915 23.2118 123.852 23.035C123.801 22.8581 123.775 22.6813 123.775 22.5044C123.775 22.3483 123.816 22.1347 123.899 21.8641C123.983 21.5834 124.087 21.2712 124.212 20.9282C124.347 20.5846 124.493 20.2255 124.649 19.851C124.805 19.4765 124.956 19.1175 125.101 18.7745C125.247 18.4309 125.372 18.1134 125.476 17.8225C125.58 17.5311 125.652 17.3021 125.694 17.1359C125.736 16.9483 125.788 16.7246 125.85 16.4647C125.913 16.2042 125.981 15.9234 126.053 15.6219C126.137 15.3098 126.214 14.9869 126.287 14.654C126.371 14.311 126.454 13.9674 126.537 13.6243C126.391 13.6552 126.209 13.6866 125.991 13.7181C125.782 13.7389 125.559 13.7596 125.32 13.7804C124.976 13.8113 124.638 13.8582 124.305 13.9205C123.972 13.9833 123.629 14.0558 123.275 14.1394C122.932 14.2119 122.573 14.2955 122.198 14.3887C121.824 14.4724 121.423 14.5608 120.997 14.654C120.372 14.7893 119.748 14.9401 119.124 15.1068C118.5 15.273 117.85 15.3566 117.173 15.3566C116.965 15.3566 116.772 15.3044 116.596 15.2006C116.419 15.086 116.221 15.0029 116.003 14.9507C115.794 15.2837 115.597 15.6427 115.41 16.0273C115.222 16.4023 115.051 16.7923 114.895 17.1982C114.739 17.5934 114.598 17.9887 114.473 18.384C114.349 18.7691 114.239 19.1335 114.146 19.4765C114.093 19.664 114.047 19.9086 114.005 20.2101C113.974 20.5015 113.943 20.803 113.911 21.1151C113.88 21.4172 113.849 21.7086 113.817 21.9893C113.787 22.27 113.755 22.4938 113.724 22.6605C113.693 22.8166 113.631 22.9726 113.537 23.1287C113.443 23.2741 113.329 23.4095 113.194 23.5341C113.058 23.6593 112.908 23.7578 112.741 23.8308C112.575 23.9139 112.408 23.9555 112.242 23.9555C111.95 23.9555 111.711 23.8724 111.524 23.7062C111.347 23.5288 111.201 23.3157 111.087 23.0659C110.982 22.8059 110.91 22.5252 110.868 22.2231C110.826 21.9216 110.806 21.6457 110.806 21.3964C110.806 20.7614 110.884 20.1062 111.04 19.4297C111.196 18.743 111.404 18.051 111.664 17.3543C111.934 16.6468 112.247 15.9389 112.6 15.2315C112.965 14.5139 113.355 13.8012 113.771 13.0937C114.114 12.4588 114.541 11.7252 115.051 10.8932C115.561 10.0606 116.127 9.20772 116.752 8.33356C117.387 7.44928 118.068 6.58577 118.796 5.74304C119.535 4.90031 120.299 4.15132 121.09 3.49557C121.881 2.8297 122.693 2.2938 123.525 1.88789C124.357 1.4825 125.184 1.27954 126.006 1.27954C126.87 1.27954 127.588 1.43563 128.16 1.7478C128.743 2.05996 129.206 2.48133 129.549 3.01189C129.892 3.54246 130.132 4.16145 130.267 4.86888C130.413 5.5763 130.486 6.32582 130.486 7.11634C130.486 7.81364 130.439 8.53117 130.345 9.27003C130.262 10.0089 130.153 10.7317 130.017 11.4392C129.892 12.1466 129.752 12.8285 129.596 13.4837C129.45 14.1394 129.315 14.7323 129.19 15.2629L128.644 17.3852C128.623 17.4475 128.581 17.5727 128.519 17.7596C128.467 17.9472 128.394 18.1762 128.301 18.4463C128.217 18.7068 128.118 18.9928 128.004 19.305C127.9 19.6065 127.791 19.9086 127.676 20.2101C127.572 20.5015 127.468 20.7721 127.364 21.0214C127.27 21.2712 127.187 21.4742 127.114 21.6302L127.13 21.6148C127.057 21.8854 126.979 22.1608 126.896 22.4416C126.813 22.7228 126.698 22.9774 126.553 23.2065C126.407 23.4249 126.22 23.6071 125.991 23.7525C125.762 23.8878 125.465 23.9555 125.101 23.9555ZM125.897 4.41661C125.429 4.41661 124.961 4.51516 124.493 4.71279C124.035 4.9003 123.582 5.15015 123.135 5.46178C122.687 5.77394 122.251 6.13829 121.824 6.55433C121.408 6.9709 121.007 7.39707 120.622 7.83442C120.248 8.27123 119.894 8.71337 119.561 9.16084C119.228 9.59765 118.926 10.0036 118.656 10.378C118.614 10.4404 118.557 10.5235 118.484 10.6279C118.422 10.7216 118.354 10.8308 118.281 10.9555C118.219 11.07 118.156 11.1947 118.094 11.33C118.032 11.4546 117.979 11.5692 117.938 11.6736H119.545C120.128 11.6736 120.794 11.632 121.543 11.5484C122.292 11.4653 123.031 11.3662 123.759 11.2522C124.498 11.1377 125.174 11.0231 125.788 10.9086C126.402 10.784 126.865 10.6902 127.177 10.6279C127.219 10.4926 127.255 10.3104 127.286 10.0813C127.328 9.85281 127.364 9.59764 127.395 9.31691C127.426 9.03564 127.447 8.73946 127.458 8.4273C127.479 8.10448 127.489 7.77687 127.489 7.44393C127.489 7.17332 127.479 6.8665 127.458 6.52344C127.437 6.16973 127.375 5.83679 127.27 5.52463C127.166 5.21247 127.005 4.95198 126.787 4.74423C126.579 4.52582 126.282 4.41661 125.897 4.41661ZM134.075 30.994C133.992 30.994 133.898 30.9733 133.794 30.9317C133.69 30.9003 133.591 30.8433 133.498 30.7602C133.414 30.6872 133.341 30.5881 133.279 30.4634C133.217 30.3489 133.185 30.2088 133.185 30.0421C133.185 29.9276 133.201 29.8082 133.232 29.683C133.315 29.34 133.404 29.0587 133.498 28.8403C133.591 28.6326 133.727 28.4557 133.903 28.3098C134.08 28.1643 134.319 28.0391 134.621 27.9353C134.923 27.8415 135.318 27.743 135.807 27.6385C136.119 27.5762 136.411 27.5032 136.681 27.4201C136.962 27.3472 137.191 27.254 137.368 27.1394C137.899 26.6712 138.346 26.1875 138.71 25.6878C139.084 25.1887 139.397 24.6682 139.646 24.1275C139.906 23.5964 140.12 23.0504 140.286 22.4884C140.463 21.927 140.63 21.3543 140.786 20.7721C140.848 20.5744 140.9 20.3715 140.941 20.1632C140.994 19.9448 141.056 19.7003 141.129 19.4297C140.734 19.7732 140.322 20.1163 139.896 20.4599C139.47 20.803 139.032 21.1098 138.585 21.3804C138.138 21.651 137.68 21.8748 137.212 22.0516C136.754 22.2183 136.296 22.3014 135.838 22.3014C135.568 22.3014 135.261 22.2183 134.918 22.0516C134.585 21.8854 134.267 21.6665 133.966 21.3964C133.664 21.1258 133.409 20.8136 133.201 20.4599C132.993 20.0955 132.889 19.7157 132.889 19.3205C132.889 19.0706 132.92 18.8005 132.982 18.5092C133.045 18.2178 133.102 17.9573 133.154 17.7288C133.321 17.0421 133.565 16.3762 133.887 15.7311C134.21 15.086 134.585 14.4724 135.011 13.8896C135.438 13.3068 135.906 12.7555 136.416 12.235C136.925 11.7045 137.457 11.2154 138.008 10.768C138.695 10.2065 139.381 9.80059 140.068 9.55076C140.754 9.30092 141.483 9.17628 142.252 9.17628C142.575 9.17628 142.882 9.19174 143.173 9.22317C143.475 9.25459 143.756 9.32223 144.016 9.42611C144.287 9.51986 144.537 9.6653 144.765 9.86293C144.994 10.0504 145.203 10.3003 145.389 10.6119C145.431 10.6849 145.462 10.7733 145.483 10.8772C145.514 10.9709 145.53 11.0546 145.53 11.127C145.53 11.2101 145.504 11.4184 145.452 11.7513C145.41 12.0742 145.348 12.4795 145.265 12.9686C145.192 13.4475 145.098 13.9881 144.984 14.5917C144.88 15.1846 144.77 15.7881 144.656 16.4023C144.541 17.0054 144.427 17.6036 144.313 18.197C144.198 18.7792 144.089 19.305 143.985 19.7733C143.808 20.5952 143.584 21.4427 143.314 22.3169C143.054 23.1911 142.731 24.0439 142.346 24.8765C141.972 25.7086 141.53 26.4943 141.02 27.2332C140.51 27.9715 139.917 28.6166 139.241 29.1679C138.565 29.7299 137.8 30.1721 136.946 30.4949C136.093 30.8278 135.136 30.994 134.075 30.994ZM135.62 18.0718C135.589 18.197 135.557 18.327 135.526 18.4623C135.505 18.5869 135.495 18.7121 135.495 18.8368C135.495 19.0658 135.537 19.2635 135.62 19.4297C135.703 19.5964 135.854 19.6795 136.073 19.6795C136.416 19.6795 136.816 19.5597 137.274 19.3205C137.743 19.0706 138.206 18.7585 138.663 18.384C139.131 18.0095 139.568 17.6036 139.974 17.1668C140.39 16.73 140.718 16.3139 140.957 15.9181C141.061 15.7519 141.197 15.5229 141.363 15.2315C141.54 14.9401 141.712 14.6279 141.878 14.2955C142.055 13.9519 142.211 13.6137 142.346 13.2807C142.482 12.9377 142.565 12.6356 142.596 12.3757C142.596 12.1988 142.56 12.0374 142.487 11.892C142.414 11.7359 142.352 11.5223 142.299 11.2522H142.159C141.909 11.2522 141.623 11.3353 141.3 11.5015C140.978 11.6576 140.635 11.8659 140.271 12.1258C139.917 12.3863 139.558 12.6825 139.194 13.0154C138.83 13.3383 138.486 13.6712 138.164 14.0143C137.841 14.3472 137.545 14.6748 137.274 14.9976C137.014 15.3098 136.811 15.5852 136.665 15.8249C136.447 16.168 136.244 16.5163 136.057 16.87C135.88 17.2136 135.734 17.6142 135.62 18.0718ZM148.121 17.7596C148.121 17.3127 148.241 16.9329 148.48 16.6207C148.719 16.3086 149.036 16.1003 149.432 15.9964C149.546 15.7674 149.723 15.4605 149.962 15.0754C150.201 14.6801 150.498 14.2534 150.852 13.7958C151.205 13.3383 151.606 12.8801 152.054 12.4225C152.511 11.9543 153.011 11.5329 153.551 11.1585C154.103 10.7733 154.691 10.4612 155.315 10.222C155.95 9.98279 156.621 9.86293 157.328 9.86293C157.932 9.86293 158.457 9.93591 158.905 10.0813C159.352 10.2273 159.721 10.4303 160.013 10.6902C160.304 10.9502 160.522 11.2623 160.668 11.6267C160.814 11.9804 160.887 12.365 160.887 12.7816C160.887 13.1353 160.84 13.4736 160.746 13.7958C160.601 14.3786 160.33 14.8884 159.935 15.3252C159.54 15.762 159.071 16.1472 158.53 16.4801C158 16.8029 157.417 17.073 156.782 17.2914C156.158 17.5104 155.528 17.692 154.894 17.838C154.27 17.9834 153.666 18.0979 153.083 18.181C152.501 18.254 151.996 18.3115 151.57 18.3531C151.476 18.5401 151.393 18.7792 151.32 19.0706C151.258 19.3519 151.226 19.6273 151.226 19.8979C151.226 20.5015 151.465 20.9697 151.944 21.3026C152.423 21.6356 153.083 21.8018 153.926 21.8018C154.415 21.8018 154.883 21.7501 155.331 21.6457C155.778 21.5312 156.2 21.3911 156.595 21.2243C157.001 21.0475 157.381 20.8605 157.734 20.6629C158.088 20.4546 158.41 20.2516 158.702 20.054C159.076 19.8042 159.43 19.5964 159.763 19.4297C160.106 19.2528 160.408 19.1644 160.668 19.1644C160.928 19.1644 161.095 19.232 161.167 19.3673C161.24 19.492 161.277 19.6273 161.277 19.7733C161.277 19.8564 161.272 19.9395 161.261 20.0226C161.261 20.0955 161.256 20.1579 161.246 20.2101C161.194 20.4807 161.09 20.7513 160.934 21.0214C160.778 21.292 160.58 21.5264 160.34 21.724C159.258 22.5769 158.145 23.1857 157.001 23.5501C155.867 23.9139 154.655 24.0961 153.365 24.0961C153.115 24.0961 152.818 24.0807 152.475 24.0492C152.142 24.0178 151.794 23.9555 151.429 23.8617C151.065 23.7685 150.706 23.6332 150.352 23.4563C149.998 23.2795 149.681 23.0451 149.4 22.7537C149.13 22.4628 148.906 22.1038 148.73 21.6771C148.563 21.2504 148.48 20.7353 148.48 20.1323C148.48 19.6433 148.547 19.0967 148.683 18.4932C148.547 18.4724 148.417 18.4048 148.292 18.2908C148.178 18.1656 148.121 17.9887 148.121 17.7596ZM157.89 13.4368C157.911 13.3851 157.921 13.3383 157.921 13.2962C157.921 13.2546 157.921 13.2078 157.921 13.1561C157.921 12.8748 157.817 12.6671 157.61 12.5317C157.401 12.3863 157.151 12.3133 156.86 12.3133C156.402 12.3133 155.95 12.4327 155.502 12.6724C155.065 12.9116 154.649 13.2131 154.254 13.5774C153.869 13.9311 153.526 14.3163 153.224 14.7323C152.922 15.1382 152.688 15.5074 152.522 15.8403C153.271 15.778 153.957 15.6789 154.582 15.5436C155.206 15.3982 155.747 15.2213 156.205 15.0131C156.673 14.7947 157.048 14.5555 157.328 14.2955C157.62 14.0249 157.807 13.7388 157.89 13.4368ZM175.213 10.9709C174.849 10.9709 174.459 11.0594 174.043 11.2362C173.627 11.403 173.195 11.632 172.748 11.9229C172.3 12.2143 171.842 12.5472 171.374 12.9217C170.916 13.286 170.464 13.6659 170.017 14.0611C169.788 14.2588 169.569 14.441 169.361 14.6072C169.153 14.7632 168.945 14.8831 168.737 14.9662C168.591 15.2054 168.435 15.5229 168.268 15.9181C168.112 16.3033 167.956 16.7299 167.8 17.1982C167.644 17.6558 167.493 18.1293 167.348 18.6184C167.213 19.0967 167.098 19.5442 167.004 19.9602C166.953 20.1786 166.911 20.3923 166.88 20.6C166.848 20.8083 166.812 21.032 166.77 21.2712C166.729 21.5003 166.677 21.7501 166.614 22.0202C166.562 22.2908 166.494 22.5928 166.411 22.9258C166.359 23.1234 166.276 23.2843 166.162 23.4095C166.047 23.524 165.928 23.6124 165.803 23.6747C165.678 23.7371 165.558 23.7733 165.444 23.7839C165.329 23.8047 165.241 23.8154 165.179 23.8154C164.783 23.8154 164.461 23.7216 164.211 23.5341C163.961 23.3471 163.836 22.9828 163.836 22.4416C163.836 22.2961 163.842 22.1454 163.852 21.9893C163.862 21.8226 163.893 21.6409 163.946 21.4427C164.175 20.4546 164.393 19.565 164.601 18.7745C164.82 17.9834 165.038 17.2499 165.257 16.5739C165.475 15.8973 165.693 15.2629 165.912 14.67C166.141 14.0665 166.37 13.4629 166.599 12.8594C166.838 12.2457 167.083 11.616 167.332 10.9709C167.592 10.3157 167.868 9.59232 168.159 8.80179C168.221 8.62494 168.383 8.47951 168.643 8.36497C168.913 8.23979 169.2 8.17747 169.502 8.17747C169.897 8.17747 170.219 8.26589 170.469 8.44274C170.729 8.6196 170.859 8.87476 170.859 9.2077C170.859 9.2386 170.849 9.29613 170.828 9.37923C170.807 9.46233 170.776 9.55076 170.734 9.64452L170.048 11.2676C170.484 10.9241 170.937 10.581 171.405 10.2374C171.884 9.89436 172.373 9.58752 172.873 9.31691C173.372 9.03564 173.871 8.81244 174.37 8.64571C174.88 8.46885 175.38 8.38042 175.869 8.38042C176.868 8.38042 177.648 8.65104 178.21 9.19173C178.772 9.72283 179.052 10.5496 179.052 11.6736C179.052 12.3187 178.938 13.0522 178.709 13.8736C178.491 14.6956 178.21 15.5804 177.867 16.527C177.534 17.4635 177.169 18.4516 176.774 19.492C176.389 20.5222 176.03 21.5732 175.697 22.6445C175.604 22.9359 175.505 23.1804 175.401 23.378C175.307 23.5757 175.192 23.7317 175.057 23.8463C174.922 23.9715 174.761 24.0599 174.573 24.1116C174.397 24.1638 174.178 24.1899 173.918 24.1899C173.512 24.1899 173.232 24.1116 173.075 23.9555C172.919 23.81 172.841 23.5709 172.841 23.2379C172.841 22.9465 172.883 22.5928 172.966 22.1763C173.059 21.7501 173.185 21.2867 173.341 20.7875C173.507 20.2777 173.694 19.7365 173.902 19.1644C174.121 18.5923 174.355 18.0095 174.605 17.4166C174.802 16.9377 174.995 16.4593 175.182 15.981C175.38 15.5021 175.551 15.0392 175.697 14.5917C175.853 14.1442 175.978 13.7181 176.072 13.3121C176.166 12.9062 176.212 12.5318 176.212 12.1882C176.212 11.8659 176.14 11.5851 175.994 11.3454C175.858 11.0961 175.598 10.9709 175.213 10.9709ZM181.846 17.6819C182.044 16.8807 182.335 16.0433 182.72 15.1691C183.115 14.2955 183.589 13.4522 184.14 12.6409C184.691 11.819 185.316 11.0647 186.013 10.378C186.721 9.68074 187.49 9.11396 188.323 8.67714C188.594 8.53118 188.89 8.42198 189.213 8.349C189.535 8.27656 189.862 8.2398 190.195 8.2398C190.539 8.2398 190.856 8.27123 191.148 8.33356C191.449 8.39588 191.704 8.50028 191.912 8.64571C192.131 8.79113 192.302 8.97864 192.427 9.2077C192.552 9.43623 192.614 9.71751 192.614 10.0504C192.614 10.3003 192.578 10.5549 192.505 10.8149C192.433 11.0647 192.323 11.2938 192.178 11.5015C192.032 11.6991 191.85 11.8605 191.632 11.9857C191.413 12.1104 191.158 12.1727 190.867 12.1727C190.637 12.1727 190.424 12.1312 190.227 12.0481C190.039 11.9644 189.858 11.8712 189.681 11.7668C189.587 11.7045 189.499 11.6528 189.415 11.6107C189.332 11.5591 189.233 11.5122 189.119 11.4706C188.703 11.6576 188.307 11.9074 187.932 12.2196C187.569 12.5211 187.225 12.8594 186.903 13.2339C186.591 13.6083 186.299 14.0089 186.029 14.4356C185.769 14.8623 185.529 15.289 185.311 15.7157C185.103 16.1419 184.921 16.5632 184.764 16.9798C184.619 17.3852 184.499 17.7597 184.405 18.1033C184.333 18.3531 184.265 18.6391 184.202 18.9614C184.151 19.2736 184.125 19.5804 184.125 19.8825C184.125 20.0902 184.14 20.2884 184.172 20.4753C184.213 20.6629 184.281 20.8291 184.375 20.975C184.468 21.1204 184.593 21.235 184.749 21.3181C184.905 21.4012 185.097 21.4427 185.326 21.4427C185.69 21.4427 186.049 21.3964 186.403 21.3026C186.767 21.2089 187.121 21.089 187.464 20.9436C187.808 20.7982 188.141 20.6314 188.463 20.4439C188.796 20.2463 189.119 20.0487 189.431 19.851C189.629 19.7264 189.826 19.5964 190.024 19.4611C190.221 19.3258 190.409 19.2059 190.586 19.1021C190.763 18.9982 190.924 18.9145 191.07 18.8522C191.226 18.7792 191.361 18.743 191.475 18.743C191.631 18.743 191.777 18.7846 191.912 18.8677C192.048 18.9406 192.115 19.0706 192.115 19.2581C192.115 19.3934 192.084 19.5442 192.021 19.7109C191.876 20.1163 191.678 20.4807 191.429 20.803C191.179 21.1258 190.898 21.4172 190.586 21.6771C190.284 21.927 189.956 22.1507 189.602 22.3483C189.259 22.5459 188.916 22.7281 188.573 22.8943C187.928 23.2379 187.272 23.4979 186.606 23.6747C185.951 23.8409 185.399 23.9246 184.952 23.9246C184.806 23.9246 184.634 23.9086 184.437 23.8777C184.239 23.8463 184.068 23.7994 183.922 23.7371C183.079 23.3732 182.465 22.8842 182.08 22.27C181.695 21.6564 181.503 20.9281 181.503 20.0854C181.503 19.721 181.529 19.3412 181.581 18.946C181.643 18.5401 181.732 18.1187 181.846 17.6819ZM195.283 30.994C195.127 30.994 194.987 30.9525 194.862 30.8694C194.737 30.7863 194.628 30.6765 194.534 30.5418C194.451 30.4065 194.383 30.2552 194.331 30.089C194.279 29.9329 194.253 29.7768 194.253 29.6207C194.253 29.4231 194.279 29.2516 194.331 29.1056C194.383 28.9602 194.446 28.8302 194.519 28.7157C194.602 28.6113 194.685 28.5282 194.768 28.4658C194.862 28.4035 194.945 28.3566 195.018 28.3252C195.268 28.2629 195.559 28.1952 195.892 28.1228C196.225 28.0498 196.584 27.9406 196.969 27.7946C197.364 27.6593 197.78 27.4777 198.217 27.2486C198.665 27.0302 199.122 26.7388 199.591 26.3745C200.059 26.0106 200.548 25.5839 201.058 25.0949C201.578 24.616 202.077 24.0546 202.556 23.4095C203.034 22.7537 203.482 22.0101 203.898 21.1775C204.314 20.3347 204.658 19.3727 204.928 18.2908C204.731 18.5092 204.501 18.7585 204.242 19.0397C203.992 19.3104 203.721 19.5911 203.43 19.8825C203.138 20.1632 202.837 20.4391 202.525 20.7097C202.212 20.9697 201.9 21.2089 201.588 21.4273C201.276 21.6356 200.969 21.8018 200.668 21.927C200.376 22.0516 200.1 22.1139 199.84 22.1139C199.143 22.1139 198.55 21.9578 198.061 21.6457C197.572 21.3234 197.119 20.7982 196.703 20.0694C196.589 19.8617 196.5 19.5911 196.438 19.2581C196.376 18.9252 196.344 18.5869 196.344 18.2439C196.344 17.6819 196.37 17.1359 196.423 16.6048C196.475 16.0742 196.553 15.5229 196.656 14.9507C196.761 14.3786 196.88 13.7804 197.015 13.1561C197.161 12.5211 197.322 11.8243 197.499 11.0647C197.51 10.8671 197.525 10.6796 197.546 10.5027C197.567 10.3573 197.577 10.2166 197.577 10.0813C197.588 9.94603 197.598 9.86294 197.608 9.83204C197.629 9.65518 197.687 9.48845 197.78 9.33237C197.884 9.17629 198.004 9.04097 198.139 8.92644C198.285 8.81244 198.436 8.72401 198.592 8.66115C198.758 8.59883 198.919 8.56794 199.075 8.56794C199.294 8.56794 199.513 8.58871 199.731 8.63026C199.95 8.66116 200.121 8.73946 200.246 8.86412C200.423 9.05163 200.553 9.29613 200.636 9.59764C200.73 9.89968 200.777 10.1698 200.777 10.4095C200.777 10.5027 200.73 10.6902 200.636 10.9709C200.553 11.2522 200.428 11.5431 200.262 11.8451C200.012 12.7816 199.809 13.5774 199.653 14.2327C199.497 14.8778 199.372 15.419 199.278 15.8558C199.195 16.2825 199.133 16.6255 199.091 16.886C199.06 17.1359 199.045 17.3282 199.045 17.4635C199.045 18.0249 199.138 18.4724 199.325 18.8053C199.513 19.1383 199.741 19.305 200.012 19.305C200.168 19.305 200.345 19.2736 200.542 19.2113C200.751 19.1489 200.969 19.0451 201.198 18.8991C202.072 18.3579 202.821 17.7703 203.445 17.1359C204.08 16.4908 204.621 15.7828 205.068 15.0131C205.526 14.2327 205.916 13.3798 206.239 12.4534C206.572 11.5276 206.874 10.508 207.144 9.39469C207.165 9.32225 207.212 9.24926 207.284 9.17628C207.368 9.1033 207.462 9.04096 207.566 8.98929C207.68 8.93709 207.799 8.89555 207.925 8.86412C208.049 8.82257 208.169 8.80179 208.283 8.80179C208.835 8.80179 209.256 8.95254 209.548 9.25458C209.849 9.54543 210 9.94123 210 10.4404C210 10.6279 209.953 10.9294 209.859 11.3454C209.766 11.762 209.657 12.2041 209.532 12.6724C209.407 13.13 209.277 13.5721 209.142 13.9988C209.017 14.4148 208.918 14.7217 208.845 14.9193L208.096 17.089C207.753 18.067 207.44 18.9668 207.16 19.7887C206.889 20.6107 206.598 21.3804 206.286 22.0985C205.974 22.8059 205.62 23.4771 205.224 24.1116C204.84 24.7465 204.372 25.3655 203.82 25.9691C203.268 26.5721 202.613 27.1756 201.853 27.7792C201.094 28.3929 200.189 29.0278 199.138 29.683C198.493 30.0682 197.858 30.3804 197.234 30.6195C196.62 30.8694 195.97 30.994 195.283 30.994Z" fill="#F8F8F8"/>
</svg>
