<svg width="114" height="50" viewBox="0 0 114 50" fill="none" xmlns="http://www.w3.org/2000/svg">
<path d="M0 18.491L10.9869 0.533203H11.1017L22.0886 18.491H18.0438L16.1792 15.4502H5.82336L3.95874 18.491H0ZM7.51587 12.6963H14.4867L11.0156 6.98767L7.51587 12.6963ZM24.0984 18.491V0.533203H24.3566L39.3023 12.2373H39.3596V1.02087H42.802V18.9786H42.5438L27.5982 7.33191H27.5408V18.491H24.0984ZM0.803222 40.0505C0.803222 37.3348 1.75944 35.1642 3.67187 33.5386C5.58431 31.8939 8.24259 31.0716 11.6467 31.0716C13.4253 31.0716 15.0987 31.1959 16.6669 31.4445C18.2542 31.674 19.4399 31.9226 20.224 32.1904V35.3746C19.153 35.0112 17.843 34.7243 16.2939 34.514C14.764 34.3036 13.4635 34.1984 12.3926 34.1984C10.0212 34.1984 8.16609 34.7052 6.82739 35.7188C5.50781 36.7324 4.84802 38.1763 4.84802 40.0505C4.84802 41.7908 5.49825 43.1964 6.7987 44.2674C8.09916 45.3192 9.8586 45.8451 12.077 45.8451C13.2245 45.8451 14.2094 45.7591 15.0317 45.587C15.8732 45.4148 16.7912 45.0802 17.7856 44.5829V41.6856H12.077V38.9891H21.0272V46.2754C19.3825 47.3464 17.9482 48.0731 16.7242 48.4556C15.5194 48.8381 13.9703 49.0293 12.077 49.0293C8.65376 49.0293 5.91898 48.207 3.87268 46.5623C1.82638 44.8985 0.803222 42.7279 0.803222 40.0505ZM27.8057 39.9357C28.0543 39.9357 29.2113 39.9453 31.2767 39.9644C33.3613 39.9835 34.9199 39.9931 35.9526 39.9931C37.0619 39.9931 37.9894 39.7158 38.7352 39.1612C39.4811 38.5875 39.854 37.9372 39.854 37.2105C39.854 36.4455 39.4428 35.7762 38.6205 35.2024C37.8173 34.6096 36.775 34.3132 35.4937 34.3132C34.4036 34.3132 32.9884 34.3419 31.2481 34.3992C29.5077 34.4375 28.3603 34.4566 27.8057 34.4566V39.9357ZM23.8183 48.7712V31.3011C25.2526 31.3011 27.1363 31.282 29.4695 31.2437C31.8218 31.1863 33.7629 31.1577 35.2929 31.1577C37.7599 31.1577 39.8158 31.7218 41.4605 32.8502C43.1243 33.9785 43.9562 35.3746 43.9562 37.0384C43.9562 38.6257 43.1912 39.9835 41.6613 41.1119C40.6094 41.8768 39.4142 42.3741 38.0755 42.6036L43.8127 48.7712H38.4771L33.9159 42.7757H27.8057V48.7712H23.8183ZM48.7487 46.5623C46.7789 44.8985 45.794 42.7279 45.794 40.0505C45.794 37.3731 46.7789 35.212 48.7487 33.5673C50.7186 31.9035 53.3099 31.0716 56.5228 31.0716C59.7357 31.0716 62.327 31.9035 64.2968 33.5673C66.2666 35.212 67.2515 37.3731 67.2515 40.0505C67.2515 42.7279 66.2666 44.8985 64.2968 46.5623C62.327 48.207 59.7357 49.0293 56.5228 49.0293C53.3099 49.0293 50.7186 48.207 48.7487 46.5623ZM51.7895 35.8336C50.6038 36.8854 50.011 38.291 50.011 40.0505C50.011 41.7908 50.6038 43.1964 51.7895 44.2674C52.9943 45.3192 54.5721 45.8451 56.5228 45.8451C58.4735 45.8451 60.0512 45.3192 61.2561 44.2674C62.4609 43.1964 63.0633 41.7908 63.0633 40.0505C63.0633 38.291 62.4609 36.8854 61.2561 35.8336C60.0512 34.7626 58.4735 34.2271 56.5228 34.2271C54.5721 34.2271 52.9943 34.7626 51.7895 35.8336ZM69.7822 41.1406V31.3011H73.8843V41.1692C73.8843 42.5653 74.3529 43.6937 75.29 44.5543C76.2462 45.3957 77.518 45.8165 79.1053 45.8165C80.7117 45.8165 81.9835 45.3957 82.9206 44.5543C83.8768 43.6937 84.3549 42.5653 84.3549 41.1692V31.3011H88.4571V41.1406C88.4571 43.4929 87.5965 45.3957 85.8753 46.8492C84.1732 48.3026 81.9261 49.0293 79.134 49.0293C76.3418 49.0293 74.0852 48.3026 72.364 46.8492C70.6428 45.3957 69.7822 43.4929 69.7822 41.1406ZM91.6407 48.7712V31.3011C92.9794 31.3011 94.8631 31.282 97.2919 31.2437C99.7207 31.1863 101.595 31.1577 102.914 31.1577C105.401 31.1577 107.466 31.7888 109.111 33.051C110.775 34.294 111.606 35.7953 111.606 37.5547C111.606 39.2951 110.775 40.7772 109.111 42.0012C107.466 43.2251 105.401 43.8371 102.914 43.8371C100.753 43.8371 98.3437 43.7319 95.6855 43.5215V48.7712H91.6407ZM95.6568 40.3947C98.7167 40.6051 101.165 40.7103 103.001 40.7103C104.282 40.7103 105.362 40.4043 106.242 39.7923C107.141 39.1803 107.59 38.4345 107.59 37.5547C107.59 36.6942 107.15 35.9483 106.271 35.3172C105.41 34.6861 104.32 34.3705 103.001 34.3705C102.025 34.3705 100.706 34.3992 99.0418 34.4566C97.378 34.4949 96.2496 34.514 95.6568 34.514V40.3947Z" fill="#F8F8F8"/>
<path d="M51.4024 17.7908C51.5456 17.6882 51.6904 17.6245 51.8367 17.5994C51.986 17.5715 52.1432 17.5497 52.3083 17.5341L53.4755 12.8091C53.4631 12.8091 53.4272 12.8091 53.3681 12.8091C53.312 12.8059 53.2483 12.8013 53.1767 12.7951C53.1082 12.7857 53.0396 12.7717 52.9713 12.753C52.9027 12.7344 52.8514 12.7079 52.8172 12.6736C52.8015 12.6518 52.7813 12.6239 52.7564 12.5897C52.7346 12.5522 52.7129 12.5133 52.6911 12.4728C52.6693 12.4293 52.6506 12.3857 52.635 12.3422C52.6195 12.2986 52.6117 12.255 52.6117 12.2115C52.6117 12.1398 52.6412 12.0806 52.7003 12.0339C52.7627 11.9842 52.8374 11.9453 52.9246 11.9173C53.0148 11.8862 53.1114 11.8644 53.214 11.8519C53.3168 11.8395 53.4102 11.8333 53.4942 11.8333C53.8864 11.8333 54.2489 11.8457 54.582 11.8706C54.9181 11.8924 55.231 11.9421 55.5205 12.0201C55.8131 12.0978 56.0869 12.2083 56.3423 12.3516C56.6006 12.4947 56.8465 12.6861 57.08 12.9258C57.1672 13.0161 57.2495 13.1172 57.3275 13.2292C57.4083 13.3414 57.4784 13.4643 57.5375 13.5981C57.5998 13.7288 57.6496 13.8705 57.687 14.023C57.7243 14.1724 57.743 14.3311 57.743 14.4992C57.743 14.5896 57.7383 14.6844 57.7289 14.784C57.7197 14.8836 57.7071 14.9692 57.6916 15.0409C57.6013 15.4019 57.4738 15.7225 57.3087 16.0027C57.1469 16.2797 56.9569 16.5272 56.7391 16.7451C56.5244 16.9599 56.2877 17.1465 56.0294 17.3054C55.7711 17.4641 55.5033 17.6026 55.2263 17.7209C54.9494 17.8391 54.6676 17.9419 54.3812 18.0291C54.0948 18.1161 53.8162 18.194 53.5455 18.2624H53.5501C53.4288 18.2999 53.298 18.3325 53.158 18.3606C53.018 18.3885 52.8763 18.4119 52.7332 18.4305C52.5899 18.4492 52.4468 18.4648 52.3035 18.4772C52.1634 18.4866 52.0311 18.4913 51.9067 18.4913C51.7698 18.4913 51.6546 18.4835 51.5612 18.468C51.4678 18.4492 51.3916 18.4259 51.3323 18.3979C51.2764 18.3668 51.2359 18.3325 51.211 18.2952C51.1862 18.2578 51.1736 18.2173 51.1736 18.1738C51.1736 18.1115 51.1908 18.0477 51.2251 17.9824C51.2624 17.9139 51.3215 17.8501 51.4024 17.7908ZM53.4569 16.4509C53.4194 16.6096 53.3805 16.7731 53.34 16.9411C53.2996 17.1092 53.2607 17.2742 53.2234 17.4361L53.3308 17.4127C53.3992 17.3972 53.491 17.3738 53.6062 17.3427C53.7244 17.3116 53.8599 17.2727 54.0124 17.226C54.1649 17.1793 54.3253 17.1232 54.4933 17.0579C54.6614 16.9926 54.8388 16.9146 55.0255 16.8244C55.2155 16.731 55.4023 16.6268 55.5859 16.5116C55.7695 16.3933 55.9454 16.2657 56.1134 16.1288C56.2815 15.9917 56.4294 15.8454 56.5571 15.6899C56.6846 15.5311 56.7858 15.3662 56.8605 15.1949C56.9383 15.0207 56.9772 14.8401 56.9772 14.6533C56.9772 14.4635 56.9399 14.2846 56.8651 14.1164C56.7906 13.9453 56.6894 13.788 56.5617 13.6448C56.4372 13.4985 56.2909 13.3693 56.1228 13.2573C55.9579 13.1422 55.7851 13.044 55.6045 12.9631C55.424 12.8823 55.2404 12.8215 55.0536 12.7811C54.87 12.7374 54.6956 12.7157 54.5307 12.7157C54.2972 13.3196 54.098 13.9327 53.9331 14.5553C53.7681 15.1778 53.6094 15.8097 53.4569 16.4509ZM58.2658 17.6369C58.3125 17.4563 58.3686 17.2463 58.434 17.0066C58.4993 16.7669 58.5679 16.5132 58.6394 16.2454C58.7142 15.9779 58.7889 15.7039 58.8635 15.4237C58.9382 15.1435 59.0083 14.8712 59.0737 14.6066C59.0767 14.5942 59.0877 14.574 59.1064 14.5459C59.125 14.5148 59.1515 14.4852 59.1857 14.4573C59.22 14.4261 59.2635 14.3996 59.3164 14.3778C59.3693 14.3561 59.4316 14.3451 59.5032 14.3451C59.5561 14.3451 59.6074 14.3513 59.6573 14.3639C59.707 14.3732 59.7507 14.3888 59.788 14.4106C59.8285 14.4323 59.8595 14.4619 59.8814 14.4992C59.9062 14.5335 59.9187 14.574 59.9187 14.6207C59.9187 14.6299 59.9187 14.6409 59.9187 14.6533C59.9187 14.6627 59.9172 14.672 59.914 14.6814L59.7834 15.1762C59.6371 15.7303 59.4876 16.2859 59.3351 16.8431C59.1857 17.4002 59.0394 17.959 58.8962 18.5193C58.8899 18.538 58.8807 18.5612 58.8683 18.5893C58.8558 18.6173 58.8386 18.6454 58.8168 18.6734C58.7951 18.7013 58.7687 18.7247 58.7374 18.7434C58.7063 18.762 58.6691 18.7714 58.6254 18.7714C58.5444 18.7714 58.4729 18.7542 58.4107 18.7201C58.3484 18.6889 58.2955 18.6484 58.2518 18.5987C58.2083 18.5488 58.1756 18.4945 58.1538 18.4352C58.132 18.376 58.1211 18.3201 58.1211 18.2672C58.1211 18.2516 58.1211 18.2375 58.1211 18.2251C58.1211 18.2127 58.1243 18.1987 58.1305 18.183L58.2658 17.6369ZM59.4845 12.8043C59.5 12.739 59.528 12.6596 59.5685 12.5662C59.609 12.4728 59.6806 12.3888 59.7834 12.3141C59.8331 12.2861 59.8938 12.2612 59.9654 12.2394C60.0371 12.2145 60.0884 12.2021 60.1195 12.2021C60.1507 12.2021 60.1818 12.2129 60.2129 12.2347C60.2471 12.2566 60.2768 12.2798 60.3016 12.3049C60.3327 12.3359 60.3624 12.3702 60.3902 12.4075C60.4682 12.4137 60.5179 12.4418 60.5397 12.4916C60.5646 12.5414 60.577 12.6005 60.577 12.669C60.577 12.7187 60.5724 12.7638 60.563 12.8043C60.5538 12.8448 60.5459 12.8775 60.5397 12.9025C60.5211 12.9678 60.4852 13.0286 60.4323 13.0845C60.3794 13.1374 60.3187 13.1841 60.2503 13.2246C60.1818 13.262 60.1102 13.2915 60.0355 13.3133C59.9607 13.335 59.8954 13.346 59.8393 13.346C59.7677 13.346 59.7118 13.3336 59.6713 13.3086C59.6339 13.2837 59.5857 13.2308 59.5265 13.1498C59.4924 13.1031 59.4721 13.0674 59.4659 13.0426C59.4627 13.0145 59.4611 12.9911 59.4611 12.9725C59.4611 12.9382 59.4627 12.9087 59.4659 12.8837C59.4721 12.8558 59.4783 12.8293 59.4845 12.8043ZM60.9552 20.6483C60.9303 20.6483 60.9023 20.6421 60.8712 20.6297C60.8401 20.6203 60.8105 20.6032 60.7825 20.5784C60.7576 20.5565 60.7358 20.5269 60.7171 20.4896C60.6985 20.4553 60.6891 20.4134 60.6891 20.3635C60.6891 20.3293 60.6938 20.2936 60.7031 20.2561C60.7281 20.1535 60.7546 20.0693 60.7825 20.004C60.8105 19.9418 60.851 19.8889 60.9039 19.8453C60.9568 19.8018 61.0284 19.7643 61.1187 19.7332C61.2089 19.7052 61.3272 19.6757 61.4735 19.6445C61.5669 19.6258 61.654 19.604 61.735 19.5791C61.819 19.5573 61.8875 19.5294 61.9404 19.4951C62.0992 19.3551 62.233 19.2103 62.342 19.0608C62.4541 18.9115 62.5475 18.7558 62.622 18.5941C62.7 18.4352 62.7637 18.2718 62.8136 18.1037C62.8665 17.9357 62.9162 17.7644 62.9629 17.5902C62.9816 17.5311 62.9972 17.4703 63.0096 17.408C63.0253 17.3427 63.0439 17.2695 63.0657 17.1886C62.9473 17.2914 62.8244 17.394 62.6968 17.4968C62.5691 17.5994 62.4385 17.6912 62.3046 17.7722C62.1707 17.8532 62.0338 17.9201 61.8937 17.973C61.7568 18.0229 61.6198 18.0477 61.4829 18.0477C61.4019 18.0477 61.3101 18.0229 61.2073 17.973C61.1077 17.9233 61.0129 17.8578 60.9225 17.777C60.8323 17.696 60.756 17.6026 60.6938 17.4968C60.6315 17.3878 60.6004 17.2742 60.6004 17.1559C60.6004 17.0812 60.6097 17.0004 60.6285 16.9132C60.6471 16.826 60.6642 16.7481 60.6798 16.6797C60.7295 16.4743 60.8027 16.2751 60.8993 16.0821C60.9957 15.8891 61.1077 15.7055 61.2354 15.5311C61.363 15.3568 61.5031 15.1918 61.6556 15.0361C61.8081 14.8774 61.9669 14.7311 62.1318 14.5972C62.3373 14.4293 62.5427 14.3078 62.7481 14.2331C62.9535 14.1583 63.1716 14.121 63.4018 14.121C63.4983 14.121 63.5902 14.1257 63.6772 14.1351C63.7676 14.1445 63.8516 14.1647 63.9294 14.1958C64.0103 14.2238 64.0851 14.2673 64.1536 14.3265C64.222 14.3826 64.2843 14.4573 64.3404 14.5505C64.3528 14.5724 64.362 14.5988 64.3683 14.6299C64.3777 14.6579 64.3823 14.683 64.3823 14.7046C64.3823 14.7295 64.3745 14.7918 64.359 14.8914C64.3466 14.988 64.3278 15.1093 64.3029 15.2556C64.2811 15.3989 64.2532 15.5606 64.2189 15.7412C64.1879 15.9186 64.155 16.0991 64.1209 16.2829C64.0867 16.4633 64.0524 16.6423 64.0181 16.8198C63.9839 16.994 63.9512 17.1513 63.9201 17.2914C63.8672 17.5373 63.8003 17.7908 63.7193 18.0524C63.6415 18.3139 63.545 18.569 63.4299 18.8181C63.3179 19.0671 63.1854 19.3021 63.0329 19.5232C62.8804 19.7441 62.703 19.9371 62.5008 20.102C62.2984 20.2701 62.0697 20.4024 61.8144 20.499C61.5591 20.5986 61.2728 20.6483 60.9552 20.6483ZM61.4175 16.7823C61.4081 16.8198 61.3989 16.8587 61.3895 16.8992C61.3833 16.9365 61.3801 16.9739 61.3801 17.0112C61.3801 17.0797 61.3925 17.1389 61.4175 17.1886C61.4424 17.2385 61.4875 17.2633 61.5528 17.2633C61.6556 17.2633 61.7755 17.2275 61.9124 17.1559C62.0525 17.0812 62.191 16.9878 62.328 16.8757C62.4681 16.7637 62.5988 16.6423 62.7202 16.5116C62.8447 16.3809 62.9427 16.2564 63.0143 16.138C63.0455 16.0883 63.0858 16.0198 63.1357 15.9326C63.1886 15.8454 63.2399 15.752 63.2898 15.6526C63.3427 15.5498 63.3894 15.4486 63.4299 15.349C63.4704 15.2463 63.4952 15.156 63.5045 15.0782C63.5045 15.0253 63.4936 14.977 63.4718 14.9335C63.4501 14.8868 63.4313 14.8229 63.4159 14.7421H63.3738C63.2991 14.7421 63.2135 14.767 63.1171 14.8167C63.0205 14.8634 62.9178 14.9257 62.8088 15.0035C62.703 15.0814 62.5956 15.17 62.4867 15.2696C62.3777 15.3662 62.2751 15.4658 62.1785 15.5684C62.0821 15.668 61.9933 15.766 61.9124 15.8626C61.8346 15.956 61.7739 16.0384 61.7304 16.1101C61.6649 16.2128 61.6043 16.317 61.5482 16.4228C61.4953 16.5256 61.4518 16.6454 61.4175 16.7823ZM65.2134 17.6369C65.2601 17.4563 65.3162 17.2463 65.3815 17.0066C65.4469 16.7669 65.5154 16.5132 65.587 16.2454C65.6617 15.9779 65.7363 15.7039 65.811 15.4237C65.8858 15.1435 65.9557 14.8712 66.0211 14.6066C66.0243 14.5942 66.0351 14.574 66.0539 14.5459C66.0726 14.5148 66.099 14.4852 66.1333 14.4573C66.1674 14.4261 66.2111 14.3996 66.264 14.3778C66.3169 14.3561 66.3792 14.3451 66.4507 14.3451C66.5037 14.3451 66.555 14.3513 66.6049 14.3639C66.6546 14.3732 66.6981 14.3888 66.7355 14.4106C66.776 14.4323 66.8071 14.4619 66.8289 14.4992C66.8538 14.5335 66.8662 14.574 66.8662 14.6207C66.8662 14.6299 66.8662 14.6409 66.8662 14.6533C66.8662 14.6627 66.8646 14.672 66.8616 14.6814L66.7309 15.1762C66.5846 15.7303 66.4351 16.2859 66.2826 16.8431C66.1333 17.4002 65.987 17.959 65.8437 18.5193C65.8375 18.538 65.8282 18.5612 65.8157 18.5893C65.8032 18.6173 65.7862 18.6454 65.7643 18.6734C65.7425 18.7013 65.7161 18.7247 65.685 18.7434C65.6539 18.762 65.6164 18.7714 65.5729 18.7714C65.492 18.7714 65.4204 18.7542 65.3581 18.7201C65.296 18.6889 65.243 18.6484 65.1994 18.5987C65.1559 18.5488 65.1232 18.4945 65.1014 18.4352C65.0795 18.376 65.0687 18.3201 65.0687 18.2672C65.0687 18.2516 65.0687 18.2375 65.0687 18.2251C65.0687 18.2127 65.0717 18.1987 65.0779 18.183L65.2134 17.6369ZM66.4321 12.8043C66.4476 12.739 66.4756 12.6596 66.5161 12.5662C66.5566 12.4728 66.6281 12.3888 66.7309 12.3141C66.7806 12.2861 66.8414 12.2612 66.9129 12.2394C66.9845 12.2145 67.0359 12.2021 67.067 12.2021C67.0981 12.2021 67.1293 12.2129 67.1604 12.2347C67.1947 12.2566 67.2242 12.2798 67.2492 12.3049C67.2803 12.3359 67.3097 12.3702 67.3378 12.4075C67.4156 12.4137 67.4655 12.4418 67.4873 12.4916C67.5121 12.5414 67.5246 12.6005 67.5246 12.669C67.5246 12.7187 67.52 12.7638 67.5106 12.8043C67.5013 12.8448 67.4935 12.8775 67.4873 12.9025C67.4685 12.9678 67.4328 13.0286 67.3799 13.0845C67.327 13.1374 67.2662 13.1841 67.1977 13.2246C67.1293 13.262 67.0576 13.2915 66.983 13.3133C66.9083 13.335 66.8429 13.346 66.7869 13.346C66.7153 13.346 66.6592 13.3336 66.6187 13.3086C66.5814 13.2837 66.5331 13.2308 66.474 13.1498C66.4397 13.1031 66.4195 13.0674 66.4133 13.0426C66.4103 13.0145 66.4087 12.9911 66.4087 12.9725C66.4087 12.9382 66.4103 12.9087 66.4133 12.8837C66.4195 12.8558 66.4259 12.8293 66.4321 12.8043ZM68.309 17.0393C68.309 16.7777 68.3385 16.507 68.3978 16.2268C68.4569 15.9436 68.519 15.6727 68.5844 15.4143C68.5036 15.4113 68.421 15.3989 68.337 15.377C68.2529 15.3552 68.1767 15.3257 68.1082 15.2883C68.0397 15.251 67.9837 15.2059 67.9401 15.153C67.8965 15.0969 67.8747 15.0331 67.8747 14.9615C67.8747 14.9335 67.8809 14.8976 67.8934 14.8541C67.9059 14.8105 67.923 14.7686 67.9448 14.7281C67.9697 14.6844 68.0008 14.6487 68.0382 14.6207C68.0755 14.5896 68.1176 14.574 68.1643 14.574H68.79C68.8491 14.574 68.8894 14.5491 68.9112 14.4992C68.9331 14.4463 68.9501 14.395 68.9626 14.3451C69.003 14.1647 69.0405 14.009 69.0748 13.8783C69.1121 13.7444 69.1431 13.6324 69.1682 13.542C69.193 13.4487 69.2117 13.3741 69.2241 13.318C69.2397 13.2588 69.2475 13.2122 69.2475 13.1779C69.2475 13.1374 69.2459 13.0985 69.2427 13.0612C69.2397 13.0238 69.2381 12.9725 69.2381 12.9071V12.8604C69.2381 12.8356 69.2397 12.8029 69.2427 12.7624C69.249 12.7219 69.2646 12.6644 69.2894 12.5897C69.3081 12.5305 69.3423 12.4744 69.3922 12.4215C69.4419 12.3686 69.5151 12.3422 69.6117 12.3422C69.6957 12.3422 69.7672 12.3592 69.8263 12.3935C69.8855 12.4277 69.9338 12.4728 69.9712 12.5289C70.0085 12.5849 70.0366 12.6488 70.0552 12.7203C70.0738 12.7919 70.0833 12.8636 70.0833 12.9352C70.0833 13.0129 70.0754 13.0829 70.0598 13.1452L69.7191 14.4525C69.8871 14.4245 70.0366 14.398 70.1672 14.3732C70.2979 14.3483 70.4288 14.3234 70.5595 14.2984C70.7026 14.2705 70.8256 14.2441 70.9282 14.219C71.0342 14.1942 71.1244 14.1739 71.1992 14.1583C71.2737 14.1397 71.3361 14.1257 71.3859 14.1164C71.4388 14.104 71.4824 14.0978 71.5166 14.0978C71.5663 14.0978 71.6162 14.1024 71.666 14.1118C71.7189 14.118 71.7641 14.1304 71.8014 14.1491C71.8419 14.1677 71.8746 14.1942 71.8994 14.2284C71.9243 14.2627 71.9369 14.3078 71.9369 14.3639C71.9369 14.4385 71.9213 14.5054 71.8902 14.5646C71.8621 14.6207 71.8247 14.6704 71.7781 14.7141C71.7315 14.7545 71.6784 14.7888 71.6193 14.8167C71.5601 14.8417 71.501 14.8603 71.4419 14.8728C71.3922 14.8822 71.3267 14.8961 71.2459 14.9149C71.1679 14.9335 71.0807 14.9537 70.9843 14.9754C70.8909 14.9972 70.7929 15.0207 70.6901 15.0455C70.5875 15.0704 70.4879 15.0953 70.3913 15.1203C70.2482 15.1576 70.1252 15.1887 70.0225 15.2137C69.9229 15.2385 69.8373 15.2572 69.7658 15.2696C69.6941 15.282 69.6349 15.2914 69.5883 15.2977C69.5447 15.3039 69.5089 15.3071 69.4808 15.3071C69.4217 15.4844 69.3704 15.6588 69.3269 15.83C69.2832 16.0011 69.2459 16.1614 69.2148 16.3108C69.1868 16.4571 69.165 16.5894 69.1493 16.7078C69.1369 16.8228 69.1307 16.9132 69.1307 16.9785C69.1307 17.0625 69.1385 17.1435 69.1541 17.2212C69.1696 17.296 69.196 17.3613 69.2335 17.4174C69.2708 17.4734 69.3207 17.5185 69.3828 17.5527C69.4482 17.584 69.5291 17.5994 69.6257 17.5994C69.7906 17.5994 69.9524 17.5543 70.1113 17.4641C70.27 17.3738 70.421 17.2601 70.5641 17.1232C70.7104 16.9832 70.8474 16.8306 70.9749 16.6657C71.1058 16.5007 71.2256 16.3434 71.3345 16.1941C71.3719 16.138 71.42 16.1101 71.4792 16.1101C71.498 16.1101 71.5196 16.1132 71.5447 16.1194C71.5726 16.1256 71.599 16.1366 71.624 16.152C71.6489 16.1677 71.6691 16.1879 71.6848 16.2128C71.7034 16.2376 71.7126 16.2673 71.7126 16.3015C71.7126 16.3264 71.7112 16.345 71.708 16.3575C71.6583 16.5505 71.5804 16.7451 71.4746 16.9411C71.3719 17.1341 71.2661 17.3287 71.1571 17.5248C71.1198 17.5932 71.0699 17.6602 71.0078 17.7255C70.9485 17.7908 70.8831 17.8547 70.8116 17.9169C70.74 17.9762 70.6653 18.0337 70.5875 18.0897C70.5097 18.1426 70.4366 18.1909 70.368 18.2345C70.2498 18.3091 70.1205 18.3606 69.9805 18.3885C69.8404 18.4165 69.7051 18.4305 69.5742 18.4305C69.372 18.4305 69.1914 18.3948 69.0327 18.3231C68.877 18.2485 68.7447 18.1489 68.6359 18.0243C68.53 17.8968 68.4491 17.7489 68.393 17.5808C68.337 17.4127 68.309 17.2322 68.309 17.0393ZM74.9624 18.2905C74.9624 18.2003 74.9732 18.0928 74.995 17.9684C75.0169 17.8407 75.0277 17.6836 75.0277 17.4968C74.9251 17.5715 74.8114 17.6602 74.6868 17.7629C74.5623 17.8656 74.4332 17.9636 74.2994 18.057C74.1655 18.1504 74.0316 18.2297 73.8978 18.2952C73.7671 18.3574 73.644 18.3885 73.529 18.3885C73.4356 18.3885 73.3468 18.3746 73.2628 18.3466C73.1788 18.3185 73.1071 18.2812 73.048 18.2345C72.8831 18.1037 72.7632 17.973 72.6885 17.8423C72.6169 17.7115 72.5812 17.559 72.5812 17.3848C72.5812 17.3068 72.5874 17.226 72.5999 17.1419C72.6153 17.0579 72.6371 16.9613 72.6652 16.8525C72.7834 16.3607 72.9858 15.9061 73.2721 15.4891C73.5617 15.0688 73.9196 14.7109 74.3461 14.4152C74.511 14.3 74.676 14.2269 74.8409 14.1958C75.0059 14.1615 75.1694 14.1445 75.3311 14.1445C75.4028 14.1445 75.4822 14.1491 75.5694 14.1583C75.6596 14.1677 75.7406 14.1771 75.8121 14.1864C75.8837 14.1709 75.9414 14.1599 75.9849 14.1537C76.0316 14.1475 76.0798 14.1445 76.1296 14.1445C76.223 14.1445 76.3007 14.1569 76.363 14.1818C76.4254 14.2066 76.4751 14.2409 76.5125 14.2845C76.5498 14.3249 76.5763 14.3732 76.5919 14.4293C76.6105 14.4822 76.6198 14.5381 76.6198 14.5972C76.6198 14.6782 76.6074 14.756 76.5825 14.8307C76.5576 14.9023 76.5326 14.9754 76.5078 15.0502L75.8915 17.5108C75.879 17.6447 75.8682 17.7676 75.8588 17.8796C75.8494 17.9916 75.8308 18.096 75.8027 18.1924C75.7935 18.2205 75.781 18.2562 75.7654 18.2999C75.753 18.3403 75.7311 18.3808 75.7001 18.4213C75.669 18.4586 75.6299 18.4913 75.5833 18.5193C75.5366 18.5474 75.476 18.5612 75.4013 18.5612C75.3047 18.5612 75.2269 18.555 75.1678 18.5426C75.1117 18.5302 75.0682 18.5131 75.0371 18.4913C75.0059 18.4664 74.9856 18.4384 74.9764 18.4073C74.967 18.373 74.9624 18.3341 74.9624 18.2905ZM73.4122 16.8805C73.3997 16.924 73.3857 16.9863 73.3702 17.0671C73.3578 17.1481 73.3516 17.2291 73.3516 17.31C73.3516 17.394 73.364 17.4703 73.3889 17.5387C73.4138 17.6042 73.4683 17.6369 73.5522 17.6369C73.6831 17.6369 73.8044 17.6088 73.9164 17.5527C74.0316 17.4936 74.139 17.4236 74.2387 17.3427C74.3725 17.2337 74.5078 17.1124 74.6449 16.9785C74.785 16.8415 74.9157 16.6984 75.0371 16.5489C75.1616 16.3995 75.2706 16.247 75.364 16.0913C75.4604 15.9326 75.5303 15.7754 75.574 15.6197C75.5989 15.5295 75.6191 15.4253 75.6347 15.3071C75.6534 15.1886 75.6626 15.0828 75.6626 14.9894C75.6626 14.949 75.6534 14.9101 75.6347 14.8728C75.6161 14.8323 75.5802 14.8121 75.5273 14.8121C75.3748 14.8121 75.2207 14.8417 75.065 14.9008C74.9125 14.96 74.7647 15.0393 74.6215 15.1389C74.4783 15.2385 74.3413 15.3568 74.2106 15.4937C74.0829 15.6276 73.9663 15.7723 73.8605 15.928C73.7546 16.0805 73.6629 16.2392 73.5849 16.4042C73.5103 16.5661 73.4526 16.7248 73.4122 16.8805ZM78.7209 12.4355C78.7303 12.3297 78.7428 12.2145 78.7582 12.09C78.7738 11.9656 78.7987 11.8503 78.833 11.7445C78.8672 11.6387 78.9123 11.5515 78.9684 11.483C79.0275 11.4114 79.1023 11.3757 79.1925 11.3757C79.2422 11.3757 79.2967 11.385 79.3558 11.4036C79.4182 11.4224 79.4757 11.4489 79.5286 11.483C79.5847 11.5142 79.6314 11.5531 79.6687 11.5998C79.7061 11.6465 79.7248 11.6978 79.7248 11.7539C79.7248 11.7788 79.72 11.8083 79.7108 11.8425C79.7014 11.8738 79.6936 11.9048 79.6873 11.9359L78.5201 16.6144C78.4734 16.8012 78.4345 16.9801 78.4035 17.1513C78.3722 17.3193 78.349 17.4579 78.3333 17.5668V17.6788C78.3333 17.7722 78.3271 17.875 78.3147 17.987C78.3023 18.096 78.279 18.1987 78.2447 18.2952C78.2105 18.3885 78.1622 18.4664 78.0999 18.5286C78.0407 18.5941 77.963 18.6267 77.8665 18.6267C77.7824 18.6267 77.7092 18.6079 77.6471 18.5706C77.5848 18.5364 77.5335 18.4913 77.493 18.4352C77.4525 18.3792 77.4229 18.3201 77.4042 18.2578C77.3856 18.1924 77.3762 18.1317 77.3762 18.0758C77.3762 18.0259 77.3809 17.9652 77.3902 17.8936C77.3996 17.8189 77.4104 17.7427 77.4229 17.6648C77.4385 17.584 77.4541 17.5046 77.4696 17.4267C77.4852 17.3457 77.5008 17.2758 77.5162 17.2166L78.7209 12.4355ZM88.6006 18.5426C88.5352 18.5426 88.4777 18.5302 88.4278 18.5053C88.3781 18.4804 88.336 18.4478 88.3017 18.4073C88.2707 18.3668 88.2458 18.3201 88.227 18.2672C88.2115 18.2143 88.2037 18.1614 88.2037 18.1085C88.2037 18.0618 88.2162 17.9979 88.241 17.9169C88.266 17.8329 88.2971 17.7395 88.3344 17.6369C88.3749 17.5341 88.4186 17.4267 88.4652 17.3146C88.5119 17.2026 88.557 17.0952 88.6006 16.9926C88.6442 16.8898 88.6815 16.7948 88.7126 16.7078C88.7438 16.6206 88.7655 16.5521 88.7779 16.5023C88.7905 16.4462 88.806 16.3793 88.8246 16.3015C88.8434 16.2236 88.8637 16.1396 88.8853 16.0494C88.9104 15.956 88.9336 15.8594 88.9555 15.7598C88.9803 15.6572 89.0052 15.5544 89.0301 15.4518C88.9865 15.461 88.932 15.4704 88.8667 15.4798C88.8044 15.486 88.7376 15.4923 88.6659 15.4985C88.5633 15.5077 88.4621 15.5217 88.3625 15.5404C88.2629 15.5592 88.1601 15.5809 88.0542 15.6059C87.9516 15.6276 87.8442 15.6526 87.7322 15.6805C87.6201 15.7055 87.5003 15.7319 87.3726 15.7598C87.1858 15.8003 86.999 15.8454 86.8123 15.8953C86.6256 15.945 86.4311 15.97 86.2287 15.97C86.1665 15.97 86.1088 15.9544 86.0559 15.9233C86.003 15.8891 85.9439 15.8642 85.8785 15.8486C85.8162 15.9482 85.7571 16.0556 85.7011 16.1707C85.6451 16.2829 85.5937 16.3995 85.547 16.521C85.5003 16.6392 85.4583 16.7575 85.421 16.8757C85.3837 16.991 85.351 17.1 85.323 17.2026C85.3073 17.2587 85.2933 17.3319 85.2809 17.4221C85.2715 17.5092 85.2622 17.5994 85.2528 17.6928C85.2436 17.7832 85.2342 17.8704 85.2248 17.9544C85.2155 18.0383 85.2061 18.1053 85.1969 18.1552C85.1875 18.2019 85.1688 18.2485 85.1408 18.2952C85.1128 18.3387 85.0786 18.3792 85.0382 18.4165C84.9977 18.454 84.9526 18.4835 84.9027 18.5053C84.853 18.5302 84.8031 18.5426 84.7534 18.5426C84.6662 18.5426 84.5945 18.5177 84.5385 18.468C84.4856 18.4149 84.442 18.3512 84.4079 18.2764C84.3766 18.1987 84.355 18.1147 84.3424 18.0243C84.3299 17.9341 84.3237 17.8516 84.3237 17.777C84.3237 17.587 84.3471 17.391 84.3938 17.1886C84.4405 16.9831 84.5027 16.7761 84.5806 16.5677C84.6614 16.356 84.7548 16.1442 84.8606 15.9326C84.9696 15.7179 85.0863 15.5047 85.2109 15.293C85.3136 15.1031 85.4412 14.8836 85.5937 14.6347C85.7463 14.3856 85.9158 14.1304 86.1026 13.8689C86.2926 13.6044 86.4964 13.346 86.7143 13.0939C86.9353 12.8418 87.164 12.6177 87.4007 12.4215C87.6372 12.2223 87.88 12.062 88.129 11.9405C88.3781 11.8193 88.6254 11.7585 88.8713 11.7585C89.1297 11.7585 89.3445 11.8052 89.5157 11.8986C89.69 11.992 89.8285 12.1181 89.9313 12.2768C90.0339 12.4355 90.1056 12.6207 90.146 12.8324C90.1896 13.044 90.2115 13.2683 90.2115 13.5048C90.2115 13.7134 90.1974 13.928 90.1694 14.1491C90.1445 14.3701 90.1119 14.5864 90.0714 14.798C90.0339 15.0097 89.992 15.2137 89.9453 15.4097C89.9016 15.6059 89.8612 15.7833 89.8239 15.942L89.6605 16.5769C89.6541 16.5956 89.6417 16.633 89.6231 16.689C89.6075 16.7451 89.5858 16.8136 89.5577 16.8944C89.5329 16.9723 89.5032 17.0579 89.469 17.1513C89.4379 17.2415 89.4052 17.3319 89.3709 17.4221C89.3399 17.5092 89.3088 17.5902 89.2776 17.6648C89.2495 17.7395 89.2246 17.8002 89.2028 17.8469L89.2076 17.8423C89.1858 17.9233 89.1625 18.0057 89.1375 18.0897C89.1126 18.1738 89.0783 18.25 89.0348 18.3185C88.9912 18.3839 88.9352 18.4384 88.8667 18.4819C88.7982 18.5223 88.7096 18.5426 88.6006 18.5426ZM88.8386 12.6971C88.6986 12.6971 88.5585 12.7265 88.4186 12.7857C88.2815 12.8418 88.1462 12.9165 88.0123 13.0098C87.8784 13.1031 87.7478 13.2121 87.6201 13.3366C87.4957 13.4612 87.3758 13.5887 87.2606 13.7196C87.1485 13.8503 87.0427 13.9825 86.9431 14.1164C86.8435 14.2471 86.7531 14.3685 86.6723 14.4806C86.6598 14.4992 86.6427 14.5241 86.6209 14.5553C86.6022 14.5834 86.582 14.616 86.5602 14.6533C86.5415 14.6876 86.5229 14.7249 86.5042 14.7654C86.4856 14.8027 86.4699 14.8369 86.4575 14.8682H86.9383C87.1127 14.8682 87.3119 14.8557 87.536 14.8307C87.7602 14.8058 87.9811 14.7762 88.1991 14.7421C88.42 14.7078 88.6224 14.6736 88.806 14.6393C88.9897 14.602 89.1282 14.574 89.2216 14.5553C89.2341 14.5148 89.2449 14.4603 89.2543 14.3918C89.2667 14.3234 89.2776 14.2471 89.287 14.1631C89.2962 14.079 89.3024 13.9903 89.3056 13.897C89.3118 13.8004 89.315 13.7024 89.315 13.6028C89.315 13.5218 89.3118 13.43 89.3056 13.3274C89.2994 13.2216 89.2807 13.1219 89.2495 13.0286C89.2184 12.9352 89.1701 12.8572 89.1048 12.7951C89.0426 12.7297 88.9539 12.6971 88.8386 12.6971ZM91.2853 20.6483C91.2604 20.6483 91.2324 20.6421 91.2011 20.6297C91.1701 20.6203 91.1406 20.6032 91.1125 20.5784C91.0877 20.5565 91.0658 20.5269 91.0472 20.4896C91.0285 20.4553 91.0191 20.4134 91.0191 20.3635C91.0191 20.3293 91.0238 20.2936 91.0332 20.2561C91.058 20.1535 91.0845 20.0693 91.1125 20.004C91.1406 19.9418 91.1811 19.8889 91.234 19.8453C91.2869 19.8018 91.3584 19.7643 91.4486 19.7332C91.539 19.7052 91.6573 19.6757 91.8036 19.6445C91.897 19.6258 91.9841 19.604 92.0649 19.5791C92.1491 19.5573 92.2174 19.5294 92.2704 19.4951C92.4293 19.3551 92.563 19.2103 92.672 19.0608C92.784 18.9115 92.8774 18.7558 92.9521 18.5941C93.0299 18.4352 93.0938 18.2718 93.1435 18.1037C93.1965 17.9357 93.2463 17.7644 93.293 17.5902C93.3117 17.5311 93.3271 17.4703 93.3396 17.408C93.3552 17.3427 93.3738 17.2695 93.3957 17.1886C93.2774 17.2914 93.1544 17.394 93.0269 17.4968C92.8992 17.5994 92.7684 17.6912 92.6347 17.7722C92.5008 17.8532 92.3637 17.9201 92.2238 17.973C92.0868 18.0229 91.9499 18.0477 91.8128 18.0477C91.732 18.0477 91.6401 18.0229 91.5374 17.973C91.4378 17.9233 91.3428 17.8578 91.2526 17.777C91.1623 17.696 91.0861 17.6026 91.0238 17.4968C90.9616 17.3878 90.9304 17.2742 90.9304 17.1559C90.9304 17.0812 90.9398 17.0004 90.9584 16.9132C90.9771 16.826 90.9943 16.7481 91.0097 16.6797C91.0596 16.4743 91.1328 16.2751 91.2292 16.0821C91.3258 15.8891 91.4378 15.7055 91.5655 15.5311C91.693 15.3568 91.833 15.1918 91.9856 15.0361C92.1381 14.8774 92.297 14.7311 92.4619 14.5972C92.6674 14.4293 92.8728 14.3078 93.0782 14.2331C93.2836 14.1583 93.5015 14.121 93.7318 14.121C93.8284 14.121 93.9201 14.1257 94.0073 14.1351C94.0975 14.1445 94.1817 14.1647 94.2595 14.1958C94.3404 14.2238 94.4151 14.2673 94.4835 14.3265C94.552 14.3826 94.6144 14.4573 94.6703 14.5505C94.6827 14.5724 94.6921 14.5988 94.6984 14.6299C94.7076 14.6579 94.7124 14.683 94.7124 14.7046C94.7124 14.7295 94.7046 14.7918 94.689 14.8914C94.6765 14.988 94.6579 15.1093 94.633 15.2556C94.6112 15.3989 94.5831 15.5606 94.5489 15.7412C94.5178 15.9186 94.4851 16.0991 94.4508 16.2829C94.4166 16.4633 94.3823 16.6423 94.3482 16.8198C94.3139 16.994 94.2813 17.1513 94.25 17.2914C94.1971 17.5373 94.1302 17.7908 94.0494 18.0524C93.9715 18.3139 93.8751 18.569 93.7598 18.8181C93.6478 19.0671 93.5155 19.3021 93.363 19.5232C93.2105 19.7441 93.0331 19.9371 92.8307 20.102C92.6285 20.2701 92.3996 20.4024 92.1443 20.499C91.8891 20.5986 91.6028 20.6483 91.2853 20.6483ZM91.7475 16.7823C91.7382 16.8198 91.7288 16.8587 91.7194 16.8992C91.7132 16.9365 91.7102 16.9739 91.7102 17.0112C91.7102 17.0797 91.7226 17.1389 91.7475 17.1886C91.7723 17.2385 91.8176 17.2633 91.8829 17.2633C91.9856 17.2633 92.1054 17.2275 92.2425 17.1559C92.3826 17.0812 92.521 16.9878 92.6579 16.8757C92.798 16.7637 92.9287 16.6423 93.0501 16.5116C93.1746 16.3809 93.2728 16.2564 93.3443 16.138C93.3754 16.0883 93.4159 16.0198 93.4656 15.9326C93.5187 15.8454 93.57 15.752 93.6197 15.6526C93.6726 15.5498 93.7193 15.4486 93.7598 15.349C93.8003 15.2463 93.8252 15.156 93.8346 15.0782C93.8346 15.0253 93.8237 14.977 93.8019 14.9335C93.7801 14.8868 93.7614 14.8229 93.7458 14.7421H93.7039C93.6291 14.7421 93.5436 14.767 93.447 14.8167C93.3506 14.8634 93.2478 14.9257 93.1389 15.0035C93.0331 15.0814 92.9257 15.17 92.8167 15.2696C92.7078 15.3662 92.605 15.4658 92.5086 15.5684C92.412 15.668 92.3234 15.766 92.2425 15.8626C92.1645 15.956 92.104 16.0384 92.0603 16.1101C91.995 16.2128 91.9342 16.317 91.8783 16.4228C91.8254 16.5256 91.7817 16.6454 91.7475 16.7823ZM95.4874 16.689C95.4874 16.5552 95.5233 16.4416 95.5948 16.3482C95.6664 16.2548 95.7613 16.1925 95.8796 16.1614C95.9139 16.0929 95.9668 16.0011 96.0383 15.8859C96.1099 15.7676 96.1987 15.64 96.3045 15.5031C96.4103 15.3662 96.5301 15.2291 96.664 15.0922C96.8009 14.9521 96.9504 14.8261 97.1122 14.7141C97.2773 14.5988 97.453 14.5054 97.6398 14.4339C97.8296 14.3623 98.0305 14.3265 98.2421 14.3265C98.4227 14.3265 98.5798 14.3483 98.7137 14.3918C98.8475 14.4355 98.958 14.4962 99.0452 14.574C99.1323 14.6517 99.1977 14.7451 99.2413 14.8541C99.2849 14.96 99.3067 15.075 99.3067 15.1996C99.3067 15.3055 99.2927 15.4067 99.2646 15.5031C99.2211 15.6774 99.1401 15.83 99.0219 15.9606C98.9036 16.0913 98.7635 16.2065 98.6016 16.3061C98.4429 16.4027 98.2686 16.4835 98.0787 16.5489C97.892 16.6144 97.7036 16.6687 97.5138 16.7124C97.327 16.7559 97.1464 16.7902 96.9721 16.815C96.7979 16.8369 96.6468 16.8541 96.5193 16.8665C96.4913 16.9224 96.4664 16.994 96.4446 17.0812C96.4259 17.1653 96.4165 17.2477 96.4165 17.3287C96.4165 17.5092 96.4881 17.6493 96.6313 17.7489C96.7745 17.8485 96.9721 17.8982 97.2242 17.8982C97.3705 17.8982 97.5106 17.8828 97.6445 17.8516C97.7783 17.8173 97.9044 17.7754 98.0226 17.7255C98.1441 17.6726 98.2577 17.6166 98.3635 17.5575C98.4693 17.4952 98.5658 17.4345 98.6529 17.3754C98.765 17.3006 98.871 17.2385 98.9704 17.1886C99.0732 17.1357 99.1634 17.1092 99.2413 17.1092C99.3191 17.1092 99.3688 17.1294 99.3907 17.1699C99.4125 17.2072 99.4233 17.2477 99.4233 17.2914C99.4233 17.3162 99.4219 17.3411 99.4187 17.366C99.4187 17.3878 99.4171 17.4064 99.4141 17.4221C99.3985 17.503 99.3674 17.584 99.3207 17.6648C99.274 17.7457 99.2149 17.8159 99.1432 17.875C98.8195 18.1301 98.4864 18.3123 98.1441 18.4213C97.8048 18.5302 97.4422 18.5847 97.0562 18.5847C96.9815 18.5847 96.8927 18.58 96.7901 18.5706C96.6905 18.5612 96.5862 18.5426 96.4772 18.5145C96.3682 18.4866 96.261 18.4462 96.155 18.3933C96.0492 18.3403 95.9543 18.2702 95.8702 18.183C95.7894 18.096 95.7225 17.9886 95.6695 17.861C95.6197 17.7333 95.5948 17.5792 95.5948 17.3988C95.5948 17.2525 95.615 17.089 95.6555 16.9084C95.615 16.9022 95.5762 16.882 95.5387 16.8478C95.5044 16.8104 95.4874 16.7575 95.4874 16.689ZM98.4102 15.3957C98.4164 15.3802 98.4195 15.3662 98.4195 15.3536C98.4195 15.3412 98.4195 15.3271 98.4195 15.3117C98.4195 15.2275 98.3884 15.1654 98.3262 15.1249C98.2639 15.0814 98.1892 15.0596 98.102 15.0596C97.9651 15.0596 97.8296 15.0953 97.6958 15.167C97.5651 15.2385 97.4406 15.3287 97.3224 15.4377C97.2071 15.5436 97.1045 15.6588 97.0142 15.7833C96.924 15.9047 96.8538 16.0151 96.8041 16.1147C97.0282 16.0961 97.2336 16.0665 97.4204 16.026C97.6072 15.9825 97.7689 15.9296 97.906 15.8672C98.0461 15.8019 98.1581 15.7303 98.2421 15.6526C98.3293 15.5716 98.3854 15.486 98.4102 15.3957ZM103.593 14.6579C103.484 14.6579 103.367 14.6844 103.243 14.7373C103.118 14.7872 102.989 14.8557 102.855 14.9427C102.721 15.0299 102.584 15.1295 102.444 15.2416C102.307 15.3506 102.172 15.4642 102.038 15.5825C101.97 15.6416 101.904 15.6961 101.842 15.7458C101.78 15.7925 101.717 15.8284 101.655 15.8532C101.612 15.9248 101.565 16.0198 101.515 16.138C101.468 16.2532 101.422 16.3809 101.375 16.521C101.328 16.6579 101.283 16.7996 101.24 16.9459C101.199 17.089 101.165 17.2228 101.137 17.3473C101.121 17.4127 101.109 17.4766 101.1 17.5387C101.09 17.601 101.079 17.668 101.067 17.7395C101.054 17.808 101.039 17.8828 101.02 17.9636C101.005 18.0446 100.984 18.1349 100.959 18.2345C100.944 18.2936 100.919 18.3418 100.885 18.3792C100.85 18.4135 100.815 18.4399 100.777 18.4586C100.74 18.4772 100.704 18.4881 100.67 18.4913C100.636 18.4975 100.609 18.5007 100.591 18.5007C100.472 18.5007 100.376 18.4726 100.301 18.4165C100.226 18.3606 100.189 18.2516 100.189 18.0897C100.189 18.0461 100.191 18.001 100.194 17.9544C100.197 17.9045 100.206 17.8501 100.222 17.7908C100.29 17.4952 100.356 17.2291 100.418 16.9926C100.483 16.7559 100.549 16.5364 100.614 16.3342C100.679 16.1318 100.745 15.942 100.81 15.7646C100.879 15.584 100.947 15.4035 101.016 15.2229C101.087 15.0393 101.16 14.8509 101.235 14.6579C101.313 14.4619 101.395 14.2455 101.482 14.009C101.501 13.9561 101.549 13.9126 101.627 13.8783C101.708 13.8409 101.794 13.8222 101.884 13.8222C102.002 13.8222 102.099 13.8487 102.173 13.9016C102.251 13.9545 102.29 14.0308 102.29 14.1304C102.29 14.1397 102.287 14.1569 102.281 14.1818C102.275 14.2066 102.265 14.2331 102.253 14.2611L102.047 14.7467C102.178 14.6439 102.313 14.5413 102.454 14.4385C102.597 14.3359 102.743 14.2441 102.892 14.1631C103.042 14.079 103.191 14.0122 103.341 13.9623C103.493 13.9094 103.643 13.8829 103.789 13.8829C104.088 13.8829 104.321 13.9639 104.489 14.1257C104.657 14.2845 104.741 14.5319 104.741 14.8682C104.741 15.0612 104.707 15.2806 104.639 15.5264C104.573 15.7723 104.489 16.037 104.387 16.3202C104.287 16.6003 104.178 16.896 104.06 17.2072C103.944 17.5154 103.837 17.8299 103.738 18.1504C103.71 18.2375 103.68 18.3107 103.649 18.3698C103.621 18.429 103.587 18.4756 103.546 18.5099C103.506 18.5474 103.457 18.5738 103.401 18.5893C103.348 18.6049 103.283 18.6127 103.205 18.6127C103.084 18.6127 103 18.5893 102.953 18.5426C102.907 18.4991 102.883 18.4275 102.883 18.3279C102.883 18.2407 102.896 18.1349 102.921 18.0103C102.948 17.8828 102.986 17.7441 103.033 17.5948C103.082 17.4423 103.138 17.2804 103.201 17.1092C103.266 16.9381 103.336 16.7637 103.411 16.5863C103.47 16.443 103.527 16.2999 103.584 16.1568C103.643 16.0135 103.694 15.8751 103.738 15.7412C103.784 15.6073 103.822 15.4798 103.85 15.3584C103.878 15.2369 103.892 15.1249 103.892 15.0221C103.892 14.9257 103.87 14.8417 103.826 14.77C103.786 14.6954 103.708 14.6579 103.593 14.6579ZM105.577 16.6657C105.636 16.426 105.724 16.1755 105.839 15.9139C105.957 15.6526 106.099 15.4003 106.263 15.1576C106.428 14.9117 106.615 14.686 106.824 14.4806C107.035 14.272 107.266 14.1024 107.515 13.9717C107.596 13.928 107.684 13.8954 107.781 13.8735C107.877 13.8519 107.975 13.8409 108.075 13.8409C108.178 13.8409 108.273 13.8503 108.36 13.8689C108.45 13.8876 108.526 13.9188 108.589 13.9623C108.654 14.0058 108.705 14.0619 108.743 14.1304C108.78 14.1988 108.799 14.283 108.799 14.3826C108.799 14.4573 108.788 14.5335 108.766 14.6113C108.744 14.686 108.712 14.7545 108.668 14.8167C108.625 14.8758 108.57 14.9241 108.505 14.9615C108.439 14.9988 108.363 15.0175 108.276 15.0175C108.207 15.0175 108.144 15.0051 108.084 14.9802C108.028 14.9552 107.974 14.9273 107.921 14.896C107.893 14.8774 107.867 14.8619 107.842 14.8494C107.817 14.8339 107.787 14.8199 107.753 14.8074C107.628 14.8634 107.51 14.9381 107.398 15.0315C107.289 15.1217 107.186 15.2229 107.09 15.335C106.997 15.447 106.909 15.5668 106.828 15.6945C106.751 15.8221 106.679 15.9498 106.614 16.0775C106.551 16.205 106.497 16.331 106.45 16.4556C106.407 16.5769 106.371 16.689 106.343 16.7918C106.321 16.8665 106.301 16.9521 106.282 17.0485C106.267 17.1419 106.259 17.2337 106.259 17.324C106.259 17.3862 106.263 17.4455 106.273 17.5014C106.285 17.5575 106.306 17.6072 106.334 17.6509C106.361 17.6944 106.399 17.7287 106.446 17.7535C106.492 17.7784 106.55 17.7908 106.618 17.7908C106.727 17.7908 106.835 17.777 106.94 17.7489C107.049 17.7209 107.155 17.685 107.258 17.6415C107.361 17.598 107.46 17.5481 107.557 17.492C107.656 17.4329 107.753 17.3738 107.846 17.3146C107.905 17.2773 107.965 17.2385 108.024 17.198C108.083 17.1575 108.139 17.1216 108.192 17.0906C108.245 17.0595 108.293 17.0345 108.337 17.0158C108.383 16.994 108.424 16.9832 108.458 16.9832C108.505 16.9832 108.548 16.9956 108.589 17.0204C108.629 17.0423 108.649 17.0812 108.649 17.1373C108.649 17.1777 108.64 17.2228 108.621 17.2727C108.578 17.394 108.519 17.503 108.444 17.5994C108.369 17.696 108.285 17.7832 108.192 17.861C108.101 17.9357 108.003 18.0026 107.898 18.0618C107.795 18.1209 107.692 18.1754 107.59 18.2251C107.397 18.3279 107.2 18.4057 107.001 18.4586C106.805 18.5083 106.64 18.5333 106.506 18.5333C106.463 18.5333 106.411 18.5286 106.352 18.5193C106.293 18.5099 106.242 18.4959 106.198 18.4772C105.946 18.3684 105.762 18.2221 105.647 18.0383C105.532 17.8547 105.474 17.6369 105.474 17.3848C105.474 17.2758 105.482 17.1621 105.498 17.0439C105.517 16.9224 105.543 16.7964 105.577 16.6657ZM109.597 20.6483C109.55 20.6483 109.509 20.6359 109.471 20.611C109.434 20.5862 109.401 20.5533 109.373 20.513C109.348 20.4725 109.328 20.4273 109.312 20.3776C109.297 20.3309 109.289 20.2842 109.289 20.2375C109.289 20.1783 109.297 20.127 109.312 20.0834C109.328 20.0399 109.347 20.001 109.368 19.9667C109.393 19.9355 109.418 19.9106 109.443 19.892C109.471 19.8733 109.496 19.8593 109.518 19.8499C109.593 19.8312 109.68 19.811 109.779 19.7893C109.879 19.7675 109.986 19.7348 110.101 19.6912C110.22 19.6507 110.344 19.5963 110.475 19.5278C110.609 19.4625 110.746 19.3753 110.886 19.2663C111.026 19.1574 111.172 19.0298 111.325 18.8835C111.48 18.7402 111.63 18.5722 111.773 18.3792C111.916 18.183 112.05 17.9606 112.174 17.7115C112.299 17.4593 112.402 17.1715 112.483 16.8478C112.424 16.9132 112.355 16.9878 112.277 17.0719C112.203 17.1529 112.122 17.2369 112.034 17.324C111.947 17.408 111.857 17.4906 111.764 17.5715C111.67 17.6493 111.577 17.7209 111.483 17.7862C111.39 17.8485 111.298 17.8983 111.208 17.9357C111.121 17.973 111.038 17.9916 110.961 17.9916C110.752 17.9916 110.575 17.9449 110.428 17.8516C110.282 17.7551 110.147 17.598 110.022 17.38C109.988 17.3178 109.961 17.2369 109.943 17.1373C109.924 17.0377 109.915 16.9365 109.915 16.8338C109.915 16.6657 109.922 16.5023 109.938 16.3434C109.954 16.1847 109.977 16.0198 110.008 15.8486C110.039 15.6774 110.075 15.4985 110.115 15.3117C110.159 15.1217 110.207 14.9133 110.26 14.686C110.263 14.6269 110.268 14.5708 110.274 14.5179C110.28 14.4744 110.284 14.4323 110.284 14.3918C110.287 14.3513 110.29 14.3265 110.293 14.3172C110.299 14.2643 110.316 14.2144 110.344 14.1677C110.375 14.121 110.411 14.0806 110.452 14.0463C110.495 14.0122 110.54 13.9857 110.587 13.9669C110.637 13.9483 110.685 13.939 110.732 13.939C110.797 13.939 110.863 13.9453 110.928 13.9577C110.993 13.9669 111.045 13.9904 111.082 14.0276C111.135 14.0837 111.174 14.1569 111.199 14.2471C111.227 14.3375 111.241 14.4183 111.241 14.49C111.241 14.5179 111.227 14.574 111.199 14.6579C111.174 14.7421 111.136 14.8291 111.087 14.9195C111.012 15.1996 110.951 15.4377 110.904 15.6338C110.858 15.8268 110.82 15.9887 110.792 16.1194C110.768 16.247 110.749 16.3497 110.736 16.4276C110.727 16.5023 110.722 16.5599 110.722 16.6003C110.722 16.7683 110.751 16.9022 110.806 17.0018C110.863 17.1014 110.931 17.1513 111.012 17.1513C111.059 17.1513 111.111 17.1419 111.171 17.1232C111.233 17.1046 111.298 17.0735 111.367 17.0298C111.628 16.8679 111.852 16.6921 112.039 16.5023C112.229 16.3093 112.391 16.0975 112.525 15.8672C112.662 15.6338 112.778 15.3786 112.875 15.1015C112.975 14.8245 113.065 14.5195 113.146 14.1864C113.152 14.1647 113.166 14.1429 113.188 14.121C113.213 14.0992 113.241 14.0806 113.272 14.0651C113.306 14.0495 113.342 14.037 113.379 14.0276C113.416 14.0152 113.452 14.009 113.486 14.009C113.652 14.009 113.778 14.0541 113.865 14.1445C113.955 14.2315 114 14.3499 114 14.4992C114 14.5553 113.986 14.6455 113.958 14.77C113.93 14.8946 113.897 15.0269 113.86 15.167C113.823 15.3039 113.784 15.4362 113.743 15.5638C113.706 15.6883 113.676 15.7801 113.655 15.8392L113.43 16.4883C113.328 16.7809 113.234 17.0501 113.15 17.296C113.069 17.5419 112.982 17.7722 112.889 17.987C112.796 18.1987 112.69 18.3995 112.571 18.5893C112.456 18.7792 112.316 18.9644 112.151 19.145C111.986 19.3254 111.79 19.506 111.563 19.6865C111.336 19.8701 111.065 20.0601 110.751 20.2561C110.558 20.3713 110.368 20.4647 110.181 20.5363C109.997 20.611 109.803 20.6483 109.597 20.6483Z" fill="#F8F8F8"/>
</svg>
