<svg width="34" height="28" viewBox="0 0 34 28" fill="none" xmlns="http://www.w3.org/2000/svg">
<path d="M33.3559 9.24583C33.6148 9.01979 34 9.23125 34 9.58854V24.5C34 26.4323 32.5723 28 30.8125 28H3.1875C1.42773 28 0 26.4323 0 24.5L0 9.59583C0 9.23125 0.378516 9.02708 0.644141 9.25312C2.13164 10.5219 4.10391 12.1333 10.8773 17.5365C12.2785 18.6594 14.6426 21.0219 17 21.0073C19.3707 21.0292 21.7812 18.6156 23.1293 17.5365C29.9027 12.1333 31.8684 10.5146 33.3559 9.24583ZM17 18.6667C18.5406 18.6958 20.7586 16.5375 21.8742 15.6479C30.6863 8.62604 31.357 8.01354 33.3891 6.26354C33.7742 5.93542 34 5.425 34 4.88542V3.5C34 1.56771 32.5723 0 30.8125 0L3.1875 0C1.42773 0 0 1.56771 0 3.5L0 4.88542C0 5.425 0.225781 5.92812 0.610937 6.26354C2.64297 8.00625 3.31367 8.62604 12.1258 15.6479C13.2414 16.5375 15.4594 18.6958 17 18.6667Z" fill="white"/>
</svg>
